<svg xmlns="http://www.w3.org/2000/svg" xmlns:xlink="http://www.w3.org/1999/xlink" width="690.991" height="884.905" viewBox="0 0 690.991 884.905">
  <defs>
    <linearGradient id="linear-gradient" x1="0.5" x2="0.5" y2="1" gradientUnits="objectBoundingBox">
      <stop offset="0" stop-color="#f5f6f8"/>
      <stop offset="0.498" stop-color="#a5a5a6" stop-opacity="0.192"/>
      <stop offset="1" stop-color="#545454" stop-opacity="0"/>
    </linearGradient>
  </defs>
  <g id="Group_710" data-name="Group 710" transform="translate(-158.009 37.003)">
    <g id="Group_573" data-name="Group 573" transform="translate(-38.244 39.762)">
      <g id="Group_571" data-name="Group 571" transform="translate(196.254 367.238)">
        <g id="Group_548" data-name="Group 548" transform="translate(74.636)">
          <g id="Group_545" data-name="Group 545" transform="translate(0 0)">
            <g id="Group_534" data-name="Group 534" transform="translate(494.792 262.787)">
              <path id="Path_1755" data-name="Path 1755" d="M3214.532-1831a6.248,6.248,0,0,1-6.331,6.164,6.248,6.248,0,0,1-6.164-6.331,6.247,6.247,0,0,1,6.331-6.164A6.248,6.248,0,0,1,3214.532-1831Z" transform="translate(-3202.037 1837.331)" fill="#9999f1"/>
              <path id="Path_1756" data-name="Path 1756" d="M3212.384-1821.943l2.428,2.418,3.346-4.391" transform="translate(-3208.889 1828.446)" fill="none" stroke="#fff" stroke-linecap="round" stroke-linejoin="round" stroke-width="0.917"/>
            </g>
            <g id="Group_535" data-name="Group 535" transform="translate(59.601 32.592)">
              <path id="Path_1757" data-name="Path 1757" d="M1925.971-2512.7a6.248,6.248,0,0,1-6.216,6.28,6.248,6.248,0,0,1-6.279-6.216,6.247,6.247,0,0,1,6.216-6.28A6.248,6.248,0,0,1,1925.971-2512.7Z" transform="translate(-1913.475 2518.916)" fill="#9999f1"/>
              <path id="Path_1758" data-name="Path 1758" d="M1923.837-2503.586l2.473,2.373,3.264-4.452" transform="translate(-1920.338 2510.14)" fill="none" stroke="#fff" stroke-linecap="round" stroke-linejoin="round" stroke-width="0.917"/>
            </g>
            <path id="Path_1761" data-name="Path 1761" d="M3280.552-2074.8a2.3,2.3,0,0,1-2.3,2.3,2.3,2.3,0,0,1-2.3-2.3,2.3,2.3,0,0,1,2.3-2.3A2.3,2.3,0,0,1,3280.552-2074.8Z" transform="translate(-2756.199 2258.905)" fill="#9999f1"/>
            <path id="Path_1762" data-name="Path 1762" d="M3079.564-2542.7a2.3,2.3,0,0,1-2.3,2.3,2.3,2.3,0,0,1-2.3-2.3,2.3,2.3,0,0,1,2.3-2.3A2.3,2.3,0,0,1,3079.564-2542.7Z" transform="translate(-2623.092 2568.781)" fill="#9999f1" opacity="0.3"/>
            <path id="Path_1763" data-name="Path 1763" d="M1840.55-2169.616a3.667,3.667,0,0,1-3.667,3.667,3.667,3.667,0,0,1-3.667-3.667,3.667,3.667,0,0,1,3.667-3.667A3.667,3.667,0,0,1,1840.55-2169.616Z" transform="translate(-1800.721 2322.607)" fill="#9999f1"/>
            <path id="Path_1764" data-name="Path 1764" d="M3171.088-2268.965a5.64,5.64,0,0,1-5.64,5.64,5.64,5.64,0,0,1-5.64-5.64,5.64,5.64,0,0,1,5.64-5.64A5.64,5.64,0,0,1,3171.088-2268.965Z" transform="translate(-2679.278 2389.709)" fill="#9999f1" opacity="0.3"/>
            <path id="Path_1765" data-name="Path 1765" d="M1754.677-2049.644a5.64,5.64,0,0,1-5.64,5.64,5.64,5.64,0,0,1-5.64-5.64,5.64,5.64,0,0,1,5.64-5.64A5.64,5.64,0,0,1,1754.677-2049.644Z" transform="translate(-1741.237 2244.46)" fill="#9999f1" opacity="0.3"/>
            <path id="Path_1766" data-name="Path 1766" d="M2365.871-2611.752a3.667,3.667,0,0,1-3.667,3.667,3.667,3.667,0,0,1-3.667-3.667,3.667,3.667,0,0,1,3.667-3.667A3.667,3.667,0,0,1,2365.871-2611.752Z" transform="translate(-2148.623 2615.419)" fill="#9999f1" opacity="0.3"/>
            <path id="Path_1767" data-name="Path 1767" d="M2447.343-2263.346a3.667,3.667,0,0,1-3.667,3.667,3.667,3.667,0,0,1-3.667-3.667,3.667,3.667,0,0,1,3.667-3.667A3.667,3.667,0,0,1,2447.343-2263.346Z" transform="translate(-2202.579 2384.681)" fill="#9999f1" opacity="0.3"/>
            <path id="Path_1768" data-name="Path 1768" d="M2649.568-2502.05a3.667,3.667,0,0,1-3.667,3.667,3.667,3.667,0,0,1-3.667-3.667,3.667,3.667,0,0,1,3.667-3.667A3.667,3.667,0,0,1,2649.568-2502.05Z" transform="translate(-2336.506 2542.767)" fill="#9999f1" opacity="0.2"/>
            <g id="Group_540" data-name="Group 540" transform="translate(0 138.546)">
              <g id="Group_539" data-name="Group 539">
                <g id="Group_537" data-name="Group 537" transform="translate(2.584)">
                  <path id="Path_1769" data-name="Path 1769" d="M1745.385-2198.562a.733.733,0,0,1-.732-.733v-5.169a.733.733,0,0,1,.732-.732.733.733,0,0,1,.733.732v5.169A.733.733,0,0,1,1745.385-2198.562Z" transform="translate(-1744.652 2205.196)" fill="#9999f1"/>
                </g>
                <g id="Group_538" data-name="Group 538" transform="translate(0 2.584)">
                  <path id="Path_1770" data-name="Path 1770" d="M1742.9-2196.079h-5.17a.733.733,0,0,1-.733-.733.733.733,0,0,1,.733-.733h5.17a.733.733,0,0,1,.733.733A.733.733,0,0,1,1742.9-2196.079Z" transform="translate(-1737 2197.545)" fill="#9999f1"/>
                </g>
              </g>
            </g>
            <path id="Path_1771" data-name="Path 1771" d="M1863-2587.267h-1.853v-1.852a.733.733,0,0,0-.733-.733.733.733,0,0,0-.732.733v1.852h-1.852a.733.733,0,0,0-.733.733.733.733,0,0,0,.733.733h1.852v1.852a.733.733,0,0,0,.732.733.733.733,0,0,0,.733-.733v-1.852H1863a.733.733,0,0,0,.733-.733A.733.733,0,0,0,1863-2587.267Z" transform="translate(-1816.537 2598.486)" fill="#9999f1"/>
            <g id="Group_544" data-name="Group 544" transform="translate(470.644 70.502)">
              <g id="Group_543" data-name="Group 543">
                <g id="Group_541" data-name="Group 541" transform="translate(2.584)">
                  <path id="Path_1772" data-name="Path 1772" d="M3138.921-2400.034a.733.733,0,0,1-.733-.733v-5.169a.733.733,0,0,1,.733-.732.733.733,0,0,1,.733.732v5.169A.733.733,0,0,1,3138.921-2400.034Z" transform="translate(-3138.188 2406.668)" fill="#9999f1"/>
                </g>
                <g id="Group_542" data-name="Group 542" transform="translate(0 2.584)">
                  <path id="Path_1773" data-name="Path 1773" d="M3136.439-2397.551h-5.169a.733.733,0,0,1-.733-.733.733.733,0,0,1,.733-.733h5.169a.733.733,0,0,1,.733.733A.733.733,0,0,1,3136.439-2397.551Z" transform="translate(-3130.537 2399.016)" fill="#9999f1"/>
                </g>
              </g>
            </g>
            <path id="Path_1774" data-name="Path 1774" d="M2369.616-2490.008h-1.853v-1.852a.733.733,0,0,0-.733-.732.733.733,0,0,0-.732.732v1.852h-1.852a.733.733,0,0,0-.732.733.733.733,0,0,0,.732.733h1.852v1.852a.733.733,0,0,0,.732.732.733.733,0,0,0,.733-.732v-1.852h1.853a.734.734,0,0,0,.733-.733A.734.734,0,0,0,2369.616-2490.008Z" transform="translate(-2152.052 2534.075)" fill="#9999f1"/>
          </g>
          <g id="Group_547" data-name="Group 547" transform="translate(183.43 144.521)">
            <path id="Path_1777" data-name="Path 1777" d="M2319.337-2186.581v14.96a1.009,1.009,0,0,1-.2.605,1.032,1.032,0,0,1-.858.45H2296.3a1.078,1.078,0,0,1-.728-.286v-13.889a.922.922,0,0,1,.924-.916h15.443a.921.921,0,0,0,.916-.924.922.922,0,0,1,.916-.924h4.638A.928.928,0,0,1,2319.337-2186.581Z" transform="translate(-2290.355 2187.505)" fill="#8989e5"/>
            <path id="Path_1778" data-name="Path 1778" d="M2308.906-2163.428a1.032,1.032,0,0,1-.859.45h-21.979a1.077,1.077,0,0,1-.728-.287,1.028,1.028,0,0,1-.221-.311.282.282,0,0,1-.032-.074l-4.892-11.165a.883.883,0,0,1,.81-1.235H2302.8a.88.88,0,0,1,.81.523l4.581,10.453Z" transform="translate(-2280.121 2179.918)" fill="#9999f1"/>
          </g>
        </g>
        <path id="Path_1779" data-name="Path 1779" d="M1843.736-1549.1c-144.948,0-340.59,13.879-327.066,38.565,11.312,20.647,306.165,15.7,320.308,21.821s-98.145,30.647,203.913,15.551c107.123-5.354,172.864-16.215,161.264-36.976C2190.03-1531.839,1933.859-1549.1,1843.736-1549.1Z" transform="translate(-1516.006 1909.231)" fill="#dee3fc"/>
        <path id="Path_1780" data-name="Path 1780" d="M2461.8-2294.021l6.216-4.606a1.714,1.714,0,0,1,1.783-.142q1.1.562,2.256,1.039a28.8,28.8,0,0,0,4.339,1.413,1.691,1.691,0,0,1,1.295,1.4l1.227,7.991a1.661,1.661,0,0,0,1.765,1.411l7.376-.486a1.642,1.642,0,0,0,1.529-1.562l.315-7.438a1.649,1.649,0,0,1,1.238-1.544,29.894,29.894,0,0,0,8.58-3.9,1.7,1.7,0,0,1,2.068.167l3.343,3.056a1.719,1.719,0,0,0,2.273.023l5.492-4.868a1.5,1.5,0,0,0,.29-.328,1.649,1.649,0,0,0-.049-1.919l-3.436-4.646-.84-1.131a29.571,29.571,0,0,0,1.861-3.743,29.97,29.97,0,0,0,1.639-5.332,1.649,1.649,0,0,1,1.37-1.308l6.438-.981a1.709,1.709,0,0,0,1.447-1.805l-.37-5.639-.111-1.616a1.731,1.731,0,0,0-1.651-1.62l-6.216-.269a1.646,1.646,0,0,1-1.54-1.182,29.68,29.68,0,0,0-2.468-5.845,5.238,5.238,0,0,0-.254-.47.88.88,0,0,1-.08-.161,1.685,1.685,0,0,1,.3-1.846l4.951-5.437a1.271,1.271,0,0,0,.152-.193,1.715,1.715,0,0,0-.132-2.072l-4.844-5.482a1.707,1.707,0,0,0-2.292-.241l-6.481,4.808a1.65,1.65,0,0,1-1.868.08,30.165,30.165,0,0,0-4.1-2.062q-1.147-.472-2.31-.842a1.739,1.739,0,0,1-1.188-1.393l-1.182-7.68a1.659,1.659,0,0,0-1.749-1.405l-7.3.492a1.734,1.734,0,0,0-1.624,1.659l-.251,5.885a1.7,1.7,0,0,1-1.363,1.6,29.807,29.807,0,0,0-8.639,3.134,1.693,1.693,0,0,1-1.977-.23l-4.9-4.464a1.751,1.751,0,0,0-2.329-.019l-5.465,4.824a1.674,1.674,0,0,0-.236,2.258l.2.273,3.994,5.4a1.712,1.712,0,0,1,.063,1.953l0,.007a29.672,29.672,0,0,0-2.422,4.662c-.364.882-.674,1.768-.952,2.667a1.68,1.68,0,0,1-1.355,1.185l-6.536,1a1.737,1.737,0,0,0-1.475,1.83l.486,7.266a1.88,1.88,0,0,0,.145.58,1.729,1.729,0,0,0,1.482,1.012l4.966.2a1.727,1.727,0,0,1,1.433.91,1.844,1.844,0,0,1,.161.45,29.7,29.7,0,0,0,4.539,10.834,1.673,1.673,0,0,1,.028,1.838,1.725,1.725,0,0,1-.176.228l-4.012,4.4a1.7,1.7,0,0,0-.02,2.265l.112.128,4.717,5.348A1.731,1.731,0,0,0,2461.8-2294.021Zm31.589-43.563a19.909,19.909,0,0,1,2.684,2.548,15.618,15.618,0,0,1,3.273,7.857c.02.264.031.524.043.784.5,15.853-17.949,23.345-28.664,11.346a16.193,16.193,0,0,1-3.193-6.655,10.549,10.549,0,0,1-.219-1.551,18.37,18.37,0,0,1,.64-6.209A16.025,16.025,0,0,1,2493.386-2337.583Z" transform="translate(-2131.653 2448.8)" fill="#edf0fd"/>
        <path id="Path_1781" data-name="Path 1781" d="M2622.508-2485.271l5.337-2.892a1.345,1.345,0,0,1,1.4.087q.791.557,1.638,1.056a22.575,22.575,0,0,0,3.215,1.577,1.327,1.327,0,0,1,.851,1.231l.072,6.344a1.3,1.3,0,0,0,1.215,1.291l5.784.436a1.289,1.289,0,0,0,1.36-1.044l1.066-5.743a1.293,1.293,0,0,1,1.132-1.063,23.456,23.456,0,0,0,7.1-2.081,1.336,1.336,0,0,1,1.588.358l2.259,2.743a1.35,1.35,0,0,0,1.763.269l4.8-3.176a1.178,1.178,0,0,0,.261-.223,1.294,1.294,0,0,0,.174-1.5l-2.156-3.989-.528-.971a23.231,23.231,0,0,0,1.859-2.7,23.542,23.542,0,0,0,1.862-3.961,1.293,1.293,0,0,1,1.208-.865l5.111-.052a1.341,1.341,0,0,0,1.323-1.243l.334-4.422.092-1.267a1.358,1.358,0,0,0-1.1-1.441l-4.8-.9a1.291,1.291,0,0,1-1.066-1.088,23.255,23.255,0,0,0-1.271-4.813,4,4,0,0,0-.146-.393.725.725,0,0,1-.044-.134,1.323,1.323,0,0,1,.44-1.4l4.446-3.678a.954.954,0,0,0,.14-.133,1.347,1.347,0,0,0,.126-1.624l-3.159-4.794a1.34,1.34,0,0,0-1.754-.44l-5.565,3.02a1.294,1.294,0,0,1-1.46-.144,23.648,23.648,0,0,0-2.956-2.054q-.839-.494-1.7-.909a1.365,1.365,0,0,1-.77-1.213l-.071-6.1a1.3,1.3,0,0,0-1.2-1.285l-5.722-.423a1.361,1.361,0,0,0-1.445,1.11l-.844,4.544a1.337,1.337,0,0,1-1.236,1.094,23.407,23.407,0,0,0-7.058,1.481,1.329,1.329,0,0,1-1.511-.4l-3.313-4.009a1.375,1.375,0,0,0-1.807-.272l-4.778,3.145a1.314,1.314,0,0,0-.433,1.728l.124.234,2.507,4.634a1.344,1.344,0,0,1-.166,1.524l0,.006a23.208,23.208,0,0,0-2.4,3.355c-.38.645-.718,1.3-1.034,1.966a1.318,1.318,0,0,1-1.184.772l-5.188.052a1.363,1.363,0,0,0-1.348,1.259l-.425,5.7a1.472,1.472,0,0,0,.048.466,1.357,1.357,0,0,0,1.04.95l3.836.7a1.356,1.356,0,0,1,1.013.865,1.46,1.46,0,0,1,.076.367,23.309,23.309,0,0,0,2.331,8.917,1.312,1.312,0,0,1-.18,1.431,1.363,1.363,0,0,1-.162.158l-3.6,2.976a1.334,1.334,0,0,0-.266,1.757l.073.112,3.074,4.675A1.358,1.358,0,0,0,2622.508-2485.271Zm29.349-30.356a15.609,15.609,0,0,1,1.8,2.276,12.256,12.256,0,0,1,1.676,6.465c-.014.207-.034.411-.054.614-1.361,12.371-16.521,16.155-23.52,5.651a12.713,12.713,0,0,1-1.746-5.523,8.273,8.273,0,0,1,0-1.229,14.4,14.4,0,0,1,1.183-4.753A12.574,12.574,0,0,1,2651.857-2515.627Z" transform="translate(-2242.805 2563.495)" fill="#edf0fd"/>
        <path id="Path_1782" data-name="Path 1782" d="M3326.57-1806.565l6.589-3.571a1.661,1.661,0,0,1,1.73.107q.976.688,2.023,1.3a27.954,27.954,0,0,0,3.969,1.946,1.638,1.638,0,0,1,1.052,1.52l.088,7.833a1.609,1.609,0,0,0,1.5,1.594l7.141.539a1.591,1.591,0,0,0,1.679-1.289l1.316-7.092a1.6,1.6,0,0,1,1.4-1.312,28.973,28.973,0,0,0,8.761-2.569,1.649,1.649,0,0,1,1.96.442l2.79,3.387a1.666,1.666,0,0,0,2.177.332l5.932-3.921a1.464,1.464,0,0,0,.323-.275,1.6,1.6,0,0,0,.214-1.847l-2.663-4.925-.651-1.2a28.611,28.611,0,0,0,2.3-3.337,29.027,29.027,0,0,0,2.3-4.891,1.6,1.6,0,0,1,1.491-1.068l6.31-.064a1.655,1.655,0,0,0,1.634-1.535l.413-5.459.115-1.565a1.678,1.678,0,0,0-1.364-1.78l-5.926-1.1a1.6,1.6,0,0,1-1.316-1.344,28.723,28.723,0,0,0-1.571-5.943,4.931,4.931,0,0,0-.179-.485.892.892,0,0,1-.055-.165,1.635,1.635,0,0,1,.543-1.73l5.49-4.541a1.235,1.235,0,0,0,.173-.164,1.663,1.663,0,0,0,.155-2.006l-3.9-5.919a1.654,1.654,0,0,0-2.166-.544l-6.871,3.729a1.6,1.6,0,0,1-1.8-.178,29.313,29.313,0,0,0-3.651-2.537q-1.036-.609-2.1-1.122a1.684,1.684,0,0,1-.949-1.5l-.087-7.528a1.608,1.608,0,0,0-1.486-1.586l-7.066-.522a1.681,1.681,0,0,0-1.784,1.37l-1.042,5.611a1.65,1.65,0,0,1-1.525,1.351,28.888,28.888,0,0,0-8.714,1.828,1.64,1.64,0,0,1-1.866-.49l-4.09-4.95a1.7,1.7,0,0,0-2.232-.335l-5.9,3.883a1.622,1.622,0,0,0-.534,2.134l.153.289,3.1,5.721a1.658,1.658,0,0,1-.206,1.881l0,.007a28.765,28.765,0,0,0-2.959,4.142c-.469.8-.886,1.6-1.276,2.428a1.627,1.627,0,0,1-1.462.952l-6.406.065a1.683,1.683,0,0,0-1.664,1.554l-.524,7.036a1.83,1.83,0,0,0,.059.576,1.678,1.678,0,0,0,1.284,1.173l4.736.869a1.674,1.674,0,0,1,1.25,1.068,1.791,1.791,0,0,1,.094.453,28.78,28.78,0,0,0,2.877,11.011,1.619,1.619,0,0,1-.223,1.766,1.668,1.668,0,0,1-.2.2l-4.448,3.674a1.648,1.648,0,0,0-.328,2.17l.09.138,3.8,5.773A1.677,1.677,0,0,0,3326.57-1806.565Zm36.238-37.481a19.283,19.283,0,0,1,2.228,2.81,15.141,15.141,0,0,1,2.069,7.983c-.018.255-.042.506-.067.758-1.68,15.275-20.4,19.947-29.042,6.977a15.7,15.7,0,0,1-2.155-6.819,10.233,10.233,0,0,1,0-1.517,17.8,17.8,0,0,1,1.46-5.869A15.526,15.526,0,0,1,3362.807-1844.047Z" transform="translate(-2707.674 2122.056)" fill="#edf0fd"/>
        <path id="Path_1783" data-name="Path 1783" d="M3452.2-1950.538l3.525-1.911a.889.889,0,0,1,.926.057q.522.368,1.082.7a14.969,14.969,0,0,0,2.123,1.041.877.877,0,0,1,.563.813l.047,4.191a.861.861,0,0,0,.8.853l3.821.288a.852.852,0,0,0,.9-.69l.7-3.794a.855.855,0,0,1,.748-.7,15.488,15.488,0,0,0,4.687-1.375.883.883,0,0,1,1.049.236l1.492,1.812a.891.891,0,0,0,1.165.178l3.173-2.1a.766.766,0,0,0,.173-.147.855.855,0,0,0,.115-.988l-1.424-2.635-.348-.642a15.35,15.35,0,0,0,1.228-1.785,15.545,15.545,0,0,0,1.23-2.617.854.854,0,0,1,.8-.571l3.376-.034a.886.886,0,0,0,.874-.821l.221-2.921.061-.837a.9.9,0,0,0-.729-.952l-3.17-.591a.853.853,0,0,1-.7-.719,15.4,15.4,0,0,0-.84-3.18,2.763,2.763,0,0,0-.1-.259.451.451,0,0,1-.03-.089.874.874,0,0,1,.291-.925l2.937-2.43a.659.659,0,0,0,.093-.088.89.89,0,0,0,.083-1.073l-2.086-3.167a.886.886,0,0,0-1.159-.291l-3.676,1.995a.855.855,0,0,1-.964-.1,15.631,15.631,0,0,0-1.953-1.357q-.554-.326-1.124-.6a.9.9,0,0,1-.508-.8l-.047-4.027a.861.861,0,0,0-.795-.849l-3.781-.28a.9.9,0,0,0-.954.733l-.558,3a.883.883,0,0,1-.816.723,15.449,15.449,0,0,0-4.662.978.877.877,0,0,1-1-.262l-2.188-2.648a.907.907,0,0,0-1.194-.18l-3.156,2.077a.867.867,0,0,0-.285,1.141l.081.155,1.656,3.061a.887.887,0,0,1-.11,1.006l0,0a15.375,15.375,0,0,0-1.583,2.216c-.25.426-.474.858-.683,1.3a.869.869,0,0,1-.782.51l-3.427.035a.9.9,0,0,0-.89.832l-.281,3.764a.99.99,0,0,0,.032.308.9.9,0,0,0,.687.627l2.533.465a.9.9,0,0,1,.669.571.957.957,0,0,1,.05.243,15.4,15.4,0,0,0,1.539,5.891.867.867,0,0,1-.119.945.962.962,0,0,1-.107.1l-2.38,1.966a.881.881,0,0,0-.175,1.161l.048.074,2.031,3.088A.9.9,0,0,0,3452.2-1950.538Zm19.386-20.052a10.3,10.3,0,0,1,1.192,1.5,8.1,8.1,0,0,1,1.107,4.271c-.009.137-.022.271-.036.406a8.387,8.387,0,0,1-15.537,3.733,8.4,8.4,0,0,1-1.154-3.648,5.552,5.552,0,0,1,0-.812,9.527,9.527,0,0,1,.782-3.14A8.306,8.306,0,0,1,3471.584-1970.591Z" transform="translate(-2794.317 2197.728)" fill="#edf0fd"/>
        <path id="Path_1784" data-name="Path 1784" d="M1713.535-1954.883l3.865-2.1a.974.974,0,0,1,1.015.063q.572.4,1.186.765a16.351,16.351,0,0,0,2.328,1.141.962.962,0,0,1,.616.892l.052,4.594a.944.944,0,0,0,.88.935l4.189.316a.934.934,0,0,0,.985-.756l.772-4.16a.937.937,0,0,1,.82-.77,17,17,0,0,0,5.139-1.507.967.967,0,0,1,1.15.259l1.636,1.987a.977.977,0,0,0,1.277.195l3.479-2.3a.858.858,0,0,0,.189-.161.937.937,0,0,0,.126-1.084l-1.562-2.889-.382-.7a16.815,16.815,0,0,0,1.346-1.958,17.035,17.035,0,0,0,1.348-2.869.938.938,0,0,1,.875-.627l3.7-.037a.971.971,0,0,0,.958-.9l.243-3.2.067-.918a.984.984,0,0,0-.8-1.044l-3.476-.648a.936.936,0,0,1-.772-.788,16.859,16.859,0,0,0-.921-3.486,2.949,2.949,0,0,0-.105-.284.487.487,0,0,1-.032-.1.958.958,0,0,1,.318-1.015l3.22-2.664a.691.691,0,0,0,.1-.1.975.975,0,0,0,.091-1.176l-2.287-3.472a.971.971,0,0,0-1.271-.319l-4.031,2.187a.937.937,0,0,1-1.057-.1,17.157,17.157,0,0,0-2.141-1.488q-.608-.358-1.232-.658a.988.988,0,0,1-.557-.879l-.051-4.416a.943.943,0,0,0-.872-.93l-4.144-.306a.986.986,0,0,0-1.046.8l-.612,3.291a.968.968,0,0,1-.895.792,16.934,16.934,0,0,0-5.112,1.073.963.963,0,0,1-1.094-.288l-2.4-2.9a1,1,0,0,0-1.309-.2l-3.46,2.277a.952.952,0,0,0-.313,1.252l.089.17,1.816,3.356a.973.973,0,0,1-.121,1.1l0,0a16.844,16.844,0,0,0-1.736,2.43c-.275.467-.52.941-.749,1.424a.953.953,0,0,1-.857.559l-3.757.038a.987.987,0,0,0-.976.911l-.308,4.127a1.071,1.071,0,0,0,.035.338.983.983,0,0,0,.753.688l2.778.51a.982.982,0,0,1,.734.626,1.053,1.053,0,0,1,.055.266,16.878,16.878,0,0,0,1.688,6.459.95.95,0,0,1-.131,1.036.957.957,0,0,1-.117.115l-2.609,2.155a.966.966,0,0,0-.192,1.273l.053.081,2.227,3.386A.984.984,0,0,0,1713.535-1954.883Zm21.256-21.986a11.247,11.247,0,0,1,1.307,1.648,8.876,8.876,0,0,1,1.214,4.682c-.01.15-.025.3-.039.444a9.2,9.2,0,0,1-17.035,4.093,9.211,9.211,0,0,1-1.264-4,5.974,5.974,0,0,1,0-.89,10.425,10.425,0,0,1,.857-3.442A9.107,9.107,0,0,1,1734.791-1976.869Z" transform="translate(-1642.478 2202.789)" fill="#edf0fd"/>
        <path id="Path_1785" data-name="Path 1785" d="M2722.114-2287.805l9.935-7.11a2.707,2.707,0,0,1,2.82-.177q1.718.916,3.535,1.7a45.458,45.458,0,0,0,6.814,2.344,2.671,2.671,0,0,1,2.008,2.245l1.728,12.65a2.623,2.623,0,0,0,2.75,2.275l11.658-.574a2.593,2.593,0,0,0,2.454-2.425l.694-11.736a2.6,2.6,0,0,1,2-2.406,47.219,47.219,0,0,0,13.649-5.928,2.689,2.689,0,0,1,3.26.317l5.2,4.914a2.716,2.716,0,0,0,3.588.1l8.8-7.542a2.372,2.372,0,0,0,.466-.51,2.6,2.6,0,0,0-.027-3.032l-5.3-7.427-1.3-1.808a46.786,46.786,0,0,0,3.037-5.861,47.4,47.4,0,0,0,2.728-8.375,2.6,2.6,0,0,1,2.2-2.029l10.192-1.381a2.7,2.7,0,0,0,2.331-2.812l-.437-8.913-.133-2.554a2.733,2.733,0,0,0-2.564-2.6l-9.808-.588a2.6,2.6,0,0,1-2.4-1.906,46.841,46.841,0,0,0-3.743-9.294,8.2,8.2,0,0,0-.388-.748,1.463,1.463,0,0,1-.122-.256,2.665,2.665,0,0,1,.529-2.907l7.96-8.456a2,2,0,0,0,.246-.3,2.71,2.71,0,0,0-.155-3.275l-7.505-8.784a2.7,2.7,0,0,0-3.614-.441L2784.831-2376a2.606,2.606,0,0,1-2.951.077,47.652,47.652,0,0,0-6.417-3.364q-1.8-.776-3.625-1.39a2.747,2.747,0,0,1-1.839-2.231l-1.665-12.158a2.621,2.621,0,0,0-2.725-2.265l-11.533.585a2.739,2.739,0,0,0-2.607,2.577l-.551,9.286a2.69,2.69,0,0,1-2.194,2.494,47.079,47.079,0,0,0-13.723,4.72,2.675,2.675,0,0,1-3.116-.415l-7.617-7.177a2.766,2.766,0,0,0-3.677-.091l-8.756,7.474a2.643,2.643,0,0,0-.432,3.559l.3.437,6.165,8.626a2.7,2.7,0,0,1,.048,3.084l-.005.012a46.873,46.873,0,0,0-3.947,7.3c-.6,1.383-1.109,2.773-1.573,4.185a2.651,2.651,0,0,1-2.171,1.836l-10.346,1.4a2.744,2.744,0,0,0-2.377,2.851l.576,11.485a2.961,2.961,0,0,0,.213.919,2.732,2.732,0,0,0,2.313,1.637l7.835.448a2.727,2.727,0,0,1,2.239,1.474,2.934,2.934,0,0,1,.243.715,46.9,46.9,0,0,0,6.882,17.226,2.639,2.639,0,0,1,0,2.9,2.741,2.741,0,0,1-.284.356l-6.451,6.842a2.685,2.685,0,0,0-.091,3.575l.173.205,7.308,8.568A2.733,2.733,0,0,0,2722.114-2287.805Zm51.021-67.953a31.442,31.442,0,0,1,4.172,4.094,24.668,24.668,0,0,1,4.961,12.492c.024.417.035.828.046,1.239.373,25.044-28.954,36.389-45.557,17.162a25.585,25.585,0,0,1-4.866-10.593,16.628,16.628,0,0,1-.306-2.454,29.005,29.005,0,0,1,1.174-9.786A25.306,25.306,0,0,1,2773.136-2355.758Z" transform="translate(-2298.469 2470.989)" fill="#dee3fc" opacity="0.504"/>
        <path id="Path_1787" data-name="Path 1787" d="M2460.8-1960.882l-13.995,166.4s-1.466,10.087,6.037,10.105c12.336.029,61.4,0,61.4,0s-9.285-2.1-9.172-6.824c.133-5.569,16.357-171.254,16.357-171.254Z" transform="translate(-2132.369 2182.984)" fill="#3052ce"/>
        <path id="Path_1788" data-name="Path 1788" d="M2526.135-1793.317c-2.426.007-49.29.154-61.3,0-5.236-.065-6.154-4.655-6.2-7.626a14.891,14.891,0,0,1,.159-2.477l.364-4.325.928-11.023.819-9.739,1.053-12.515.887-10.563,9.943-118.238,60.629-1.573s-6.833,69.339-11.666,119.811c-.54,5.624-1.053,11.016-1.528,16.049q-.231,2.41-.446,4.708c-.448,4.775-.858,9.16-1.214,13.032-.189,2.041-.362,3.937-.518,5.674-.617,6.807-.978,11.153-.983,11.98a7,7,0,0,0,.118,1.347C2518.175-1793.491,2525.225-1793.317,2526.135-1793.317Z" transform="translate(-2140.276 2188.904)" fill="#7f95f4"/>
        <path id="Path_1789" data-name="Path 1789" d="M2052.51-2225.9l34.088,136.926,4.667,18.753,15.876,63.776h294.963L2343.587-2225.9Z" transform="translate(-1871.315 2357.453)" fill="#7f95f4"/>
        <path id="Path_1790" data-name="Path 1790" d="M2043.245-2225.9l-4.724,1.575,53.076,222.644,6.281-4.763Z" transform="translate(-1862.05 2357.453)" fill="#3052ce"/>
        <path id="Path_1791" data-name="Path 1791" d="M2195.675-1571.348h293.148l8.1-4.763H2201.957Z" transform="translate(-1966.129 1927.12)" fill="#3052ce"/>
        <rect id="Rectangle_434" data-name="Rectangle 434" width="63.471" height="3.016" transform="translate(395.963 398.669) rotate(180)" fill="#4b5a9b"/>
        <path id="Path_1792" data-name="Path 1792" d="M2052.509-2225.9h291.077l46.87,176.372H2096.434Z" transform="translate(-1871.315 2357.453)" fill="#dbd5db"/>
        <path id="Path_1793" data-name="Path 1793" d="M2087.244-2207.346l41.813,160.665h270.3L2357.089-2205.5Z" transform="translate(-1894.318 2345.166)" fill="#f4f5f8"/>
        <rect id="Rectangle_435" data-name="Rectangle 435" width="102.243" height="64.512" transform="translate(290.774 233.968)" fill="#c9d1f8"/>
        <rect id="Rectangle_436" data-name="Rectangle 436" width="102.241" height="64.509" transform="translate(341.895 233.97)" fill="#dee3fc"/>
        <path id="Path_1794" data-name="Path 1794" d="M2331.888-1922.663l-22.987,22.182h51.153l22.954-22.182Z" transform="translate(-2041.115 2156.63)" fill="#dee3fc"/>
        <path id="Path_1795" data-name="Path 1795" d="M2630.568-1920.372l-102.241-2.286v8.173h0v1.336l19.01,20.844h83.231v-20.748l-.527-.618h.527Z" transform="translate(-2186.433 2156.626)" fill="#c9d1f8"/>
        <path id="Path_1796" data-name="Path 1796" d="M2528.327-1922.663l20.23,22.182h100.889l-18.878-22.182Z" transform="translate(-2186.433 2156.63)" fill="#dee3fc"/>
        <path id="Path_1797" data-name="Path 1797" d="M1946.408-1962.023s.711-7.747-7.946-7.747a10.172,10.172,0,0,1,3.98,2.134s-5.521-3.241-11.529,1.74-2.275,17.471-4.1,19.842-8.942,2.846-8.073,10.515,22.581,17.272,21.187,23.617c0,0,8.508-12.507,2.424-18.215,0,0,2.965,2.793,3.267,6.114,0,0,.8-6.483-3.32-8.556-3.65-1.835-6.641-8.546-6.324-9.745S1946.408-1962.023,1946.408-1962.023Z" transform="translate(-1782.674 2187.827)" fill="#30262a"/>
        <path id="Path_1798" data-name="Path 1798" d="M1957.594-1836.694s6.467,26.753,12.815,32.1c3.815,3.214,15.161,10.592,15.161,10.592l-4.719,1.712s-15.736-5.314-19.259-9.457-13.169-24.9-13.169-24.9Z" transform="translate(-1802.382 2099.696)" fill="#ffbc96"/>
        <g id="Group_550" data-name="Group 550" transform="translate(152.984 305.032)">
          <path id="Path_1799" data-name="Path 1799" d="M2008.428-1701.8l-1.52-3.764a10.675,10.675,0,0,0-9.9-6.677h-28.034v93.733h115.969v-75.944H2019.32A11.747,11.747,0,0,1,2008.428-1701.8Z" transform="translate(-1968.976 1712.245)" fill="#e6e8f0"/>
          <g id="Group_549" data-name="Group 549" transform="translate(17.493 31.784)">
            <path id="Path_1800" data-name="Path 1800" d="M2020.77-1577.078v-6.757l23.7-10.38v6.9l-16.55,6.806,16.55,6.806v7Z" transform="translate(-2020.77 1602.294)" fill="#272e69"/>
            <path id="Path_1801" data-name="Path 1801" d="M2121.326-1618.136h6.316l-21.691,45.34h-6.316Z" transform="translate(-2073 1618.136)" fill="#272e69"/>
            <path id="Path_1802" data-name="Path 1802" d="M2214.087-1583.835v6.757l-23.7,10.38v-6.9l16.55-6.807-16.55-6.806v-7Z" transform="translate(-2133.103 1602.294)" fill="#272e69"/>
          </g>
        </g>
        <path id="Path_1803" data-name="Path 1803" d="M1787.714-1747.119c.057.1.117.208.178.314,1.415,2.46,4.661,8.487,8.237,15.082,1.691,3.129,3.462,6.387,5.142,9.452,2.895,5.29,5.528,10,7.064,12.49,1.563,2.531,2.713,4.309,3.178,5.021l0,0a1.179,1.179,0,0,1,.151.734,38.365,38.365,0,0,0,.1,6.633,50.881,50.881,0,0,0,16.625,32.955l4.3.636s-6.088-22.554-7.881-35.305a24.512,24.512,0,0,1-.329-5.055c.318-3.322-.272-8.2-1.388-13.8a309.153,309.153,0,0,0-8.8-31.942c-.2-.624-6.25-22.509-6.25-22.509-5.078,4.438-23.6,6.27-23.6,6.27S1781.312-1758.5,1787.714-1747.119Z" transform="translate(-1693.279 2057.122)" fill="#c3c8dd"/>
        <path id="Path_1804" data-name="Path 1804" d="M1920.146-1454.3h-17.955a9.857,9.857,0,0,1,.508-4.812c.9-1.992,2.179-2.055.164-5.178,1.141,1.175,4.809,1.661,7.4,1.311.318.516,2.051,3.975,3.113,4.739C1914.552-1457.4,1919.784-1457.7,1920.146-1454.3Z" transform="translate(-1771.698 1853.065)" fill="#272e69"/>
        <path id="Path_1805" data-name="Path 1805" d="M1795.62-1718.288c.057.1.117.208.178.314,1.415,2.46,9.068,16.6,12.644,23.19-4.143-17.045-1.261-34.091-1.261-34.091Z" transform="translate(-1701.186 2028.291)" fill="#b6bcd3"/>
        <path id="Path_1806" data-name="Path 1806" d="M1966.1-1950.3c.118-.471-10.255,4.688-10.781,5.271-4.864,5.4-3.477,12.437-.694,12.5,1.785.043,1.439,3.011,1.439,3.011l19.887-8.413S1973.56-1951.892,1966.1-1950.3Z" transform="translate(-1804.818 2175.019)" fill="#30262a"/>
        <path id="Path_1807" data-name="Path 1807" d="M1953.25-1848.59s3.027,6.046,2.649,10.952c0,0-3.649,5.76-13.114,7.219C1942.785-1830.419,1950.922-1848.595,1953.25-1848.59Z" transform="translate(-1798.648 2107.574)" fill="#3945ba"/>
        <path id="Path_1808" data-name="Path 1808" d="M1748.691-1772.151l.061-3.358c-6.69.844-23.07-8-23.07-8s-7,4.656-7.958,17.951c-.468,6.489-3.426,33.933-3.754,42.129-.119,2.97-.159,5.09-.172,5.937a.021.021,0,0,1,0,.008,1.166,1.166,0,0,1-.285.691,38.343,38.343,0,0,0-3.625,5.557c-10.209,19-4.87,44.806-4.87,44.806l2.371-.6s8.632-26.757,14.274-38.331a24.211,24.211,0,0,1,2.555-4.374c2.121-2.577,4.358-6.952,6.563-12.218C1734.951-1731.906,1748.691-1772.151,1748.691-1772.151Z" transform="translate(-1640.259 2064.47)" fill="#c3c8dd"/>
        <path id="Path_1809" data-name="Path 1809" d="M1714.63-1454.554h-17.955a9.856,9.856,0,0,1,.508-4.812c.9-1.992,2.306-2.9,1.969-5.308a6.466,6.466,0,0,0,5.6,2.141,19.7,19.7,0,0,0,3.115,4.038C1709.036-1457.651,1714.268-1457.952,1714.63-1454.554Z" transform="translate(-1635.592 1853.319)" fill="#272e69"/>
        <path id="Path_1810" data-name="Path 1810" d="M1825.04-1846.518c-2.412.412.394,2.328-2.923,2.689-4.721.515-9.6.868-12.149,1.886a2.743,2.743,0,0,0-1.749,1.417c-1.107,3.328-8.116,9.047-8.116,9.047-31.264-1.423-33.278-15.358-33.278-15.358,20.291-19.707,37.553-30.448,51.82-31.778,3.472-.324,8.152.111,10.348,1.088,4.99,2.221,7.724,8.982,7.724,8.982S1834.2-1848.081,1825.04-1846.518Z" transform="translate(-1682.114 2127.528)" fill="#3945ba"/>
        <path id="Path_1811" data-name="Path 1811" d="M1906.518-1825.286c-4.721.516-9.6.868-12.149,1.886a49.786,49.786,0,0,1,6.315-27.321S1905.484-1831.187,1906.518-1825.286Z" transform="translate(-1766.517 2108.985)" fill="#2e3ab2"/>
        <path id="Path_1812" data-name="Path 1812" d="M1914.317-1858.564s-11.872-.648-13.982,6.805,3.958,37.207,5.265,40.278c2.381,5.591,13.97,21.547,13.97,21.547l4.262-1.3s-7.727-24.376-9.452-26.788C1911.672-1821.807,1917.871-1855.321,1914.317-1858.564Z" transform="translate(-1770.242 2114.189)" fill="#ffbc96"/>
        <path id="Path_1813" data-name="Path 1813" d="M1961.749-1660.189a6.714,6.714,0,0,0,1.018,2.866c.8.975,3.122,3.337,3.163,4.719,0,0-.117.614-.615.5s-2.229-1.825-3.117-1.7a17.211,17.211,0,0,0,.944,3.55c.47.78.1,4.089-.186,4.762s-3.746-3.614-5.17-5.529-.022-9.686-.022-9.686Z" transform="translate(-1808.16 1983.146)" fill="#ffbc96"/>
        <path id="Path_1814" data-name="Path 1814" d="M1894.268-1846.108c.031.175,11.235,2.062,18.243-1.5,0,0,5.855-18.341-2.511-17.463s-13.321,3.513-13.531,7.518S1894.268-1846.108,1894.268-1846.108Z" transform="translate(-1766.517 2118.506)" fill="#3945ba"/>
        <path id="Path_1815" data-name="Path 1815" d="M1949.986-1885.414c.892,2.8,3.867,10.761,7.991,7.7-.14-.594.727-2.323,1.748-4.079,1.305-2.244,2.861-4.537,2.861-4.537l-6.72-5.887-.4-.352a17.115,17.115,0,0,1-5,5.675A1.341,1.341,0,0,0,1949.986-1885.414Z" transform="translate(-1803.374 2136.702)" fill="#ffbc96"/>
        <path id="Path_1816" data-name="Path 1816" d="M1974-1885.641s-1.554,2.288-2.859,4.535c-4.177-2.575-4.181-7.746-3.859-10.424Z" transform="translate(-1814.785 2136.012)" fill="#f2aa81"/>
        <path id="Path_1817" data-name="Path 1817" d="M1973.636-1906.238s-10.141-5.643-6.53-11.9,4.735-11.207,11.362-7.869,6.5,6.447,5.8,8.83S1976.367-1904.932,1973.636-1906.238Z" transform="translate(-1814.239 2159.559)" fill="#ffbc96"/>
        <path id="Path_1818" data-name="Path 1818" d="M1983.891-1922.5c-.465-2.78-1.877-3.046-2.862-2.86a8.11,8.11,0,0,0-9.864-3.776,13.81,13.81,0,0,1-7.993,4.8s1.177,2.189,6.026,3.545a8.285,8.285,0,0,0,4.783-.382,27.069,27.069,0,0,1-6.882,2.594c6.39.585,12.469-5.257,13.1-5.882a9.09,9.09,0,0,1,.5,4.186c-.42,1.883-2.092,5.294-1.071,5.735C1979.63-1914.536,1984.587-1918.327,1983.891-1922.5Z" transform="translate(-1812.149 2161.222)" fill="#30262a"/>
        <path id="Path_1819" data-name="Path 1819" d="M2060.978-1710.623s-2.83,2.123-.7,3.51,5.94,1.763,5.956.852C2066.289-1709.316,2064.765-1711.489,2060.978-1710.623Z" transform="translate(-1875.934 2016.33)" fill="#ffbc96"/>
        <path id="Path_1820" data-name="Path 1820" d="M2185.013-2059.966c-.329-1.359.266-2.425,1.525-2.427a2.963,2.963,0,0,1,2.686,2.42c.329,1.359-.26,2.425-1.525,2.427A2.95,2.95,0,0,1,2185.013-2059.966Zm3.141,0c-.206-.851-.781-1.492-1.4-1.492s-.878.625-.667,1.495.774,1.492,1.4,1.491S2188.363-2059.107,2188.154-2059.971Z" transform="translate(-1959.008 2249.168)" fill="#272e69"/>
        <path id="Path_1821" data-name="Path 1821" d="M2128.952-2161.55l-.777.2-.421-.844,1.264-.4h.71l1.143,4.72-1.029,0Z" transform="translate(-1921.147 2315.53)" fill="#4859a8"/>
        <path id="Path_1822" data-name="Path 1822" d="M2142.063-2160.33c-.329-1.359.266-2.425,1.525-2.427a2.963,2.963,0,0,1,2.685,2.42c.329,1.359-.26,2.425-1.525,2.427A2.95,2.95,0,0,1,2142.063-2160.33Zm3.141-.005c-.206-.85-.781-1.492-1.4-1.491s-.878.624-.667,1.495.774,1.492,1.4,1.491S2145.413-2159.471,2145.2-2160.335Z" transform="translate(-1930.564 2315.636)" fill="#4859a8"/>
        <path id="Path_1829" data-name="Path 1829" d="M2679.452-2161.176c-.329-1.359.266-2.425,1.525-2.427a2.963,2.963,0,0,1,2.686,2.42c.329,1.359-.26,2.425-1.525,2.427A2.95,2.95,0,0,1,2679.452-2161.176Zm3.141-.005c-.206-.85-.781-1.492-1.4-1.491s-.878.625-.667,1.495.775,1.492,1.4,1.491S2682.8-2160.318,2682.592-2161.181Z" transform="translate(-2286.458 2316.197)" fill="#4859a8"/>
        <path id="Path_1830" data-name="Path 1830" d="M2697.291-2161.207c-.329-1.359.266-2.425,1.525-2.427a2.963,2.963,0,0,1,2.685,2.42c.329,1.359-.26,2.426-1.525,2.427A2.95,2.95,0,0,1,2697.291-2161.207Zm3.141-.005c-.206-.851-.781-1.492-1.4-1.491s-.878.625-.667,1.5.774,1.492,1.4,1.491S2700.641-2160.348,2700.432-2161.212Z" transform="translate(-2298.272 2316.217)" fill="#4859a8"/>
        <path id="Path_1831" data-name="Path 1831" d="M2716.693-2161.239c-.329-1.359.266-2.425,1.525-2.427a2.962,2.962,0,0,1,2.685,2.42c.33,1.359-.259,2.425-1.525,2.427A2.95,2.95,0,0,1,2716.693-2161.239Zm3.141-.005c-.206-.85-.781-1.493-1.4-1.491s-.878.624-.667,1.495.774,1.492,1.4,1.491S2720.044-2160.38,2719.834-2161.244Z" transform="translate(-2311.123 2316.238)" fill="#4859a8"/>
        <path id="Path_1832" data-name="Path 1832" d="M2748.383-2161.292c-.33-1.359.266-2.425,1.525-2.427a2.963,2.963,0,0,1,2.686,2.42c.329,1.359-.259,2.425-1.525,2.427A2.95,2.95,0,0,1,2748.383-2161.292Zm3.141-.005c-.206-.85-.781-1.492-1.4-1.491s-.878.625-.667,1.495.775,1.492,1.4,1.491S2751.732-2160.434,2751.523-2161.3Z" transform="translate(-2332.108 2316.274)" fill="#4859a8"/>
        <path id="Path_1833" data-name="Path 1833" d="M2766.279-2162.565l-.777.2-.421-.843,1.263-.4h.711l1.144,4.72-1.029,0Z" transform="translate(-2343.227 2316.202)" fill="#4859a8"/>
        <path id="Path_1834" data-name="Path 1834" d="M2779.39-2161.344c-.329-1.359.266-2.426,1.525-2.428a2.963,2.963,0,0,1,2.685,2.42c.329,1.359-.259,2.425-1.525,2.427A2.951,2.951,0,0,1,2779.39-2161.344Zm3.141-.006c-.206-.85-.781-1.492-1.4-1.491s-.878.625-.667,1.495.774,1.492,1.4,1.491S2782.74-2160.486,2782.531-2161.35Z" transform="translate(-2352.644 2316.308)" fill="#4859a8"/>
        <path id="Path_1835" data-name="Path 1835" d="M2810.453-2161.428c-.328-1.359.266-2.425,1.526-2.427a2.963,2.963,0,0,1,2.685,2.42c.329,1.359-.26,2.425-1.525,2.427A2.952,2.952,0,0,1,2810.453-2161.428Zm3.142-.005c-.206-.85-.781-1.492-1.4-1.491s-.878.625-.667,1.5.774,1.492,1.4,1.491S2813.8-2160.57,2813.594-2161.434Z" transform="translate(-2373.215 2316.364)" fill="#4859a8"/>
        <path id="Path_1838" data-name="Path 1838" d="M2755.7-2131.083c-.329-1.359.266-2.425,1.525-2.427a2.963,2.963,0,0,1,2.685,2.42c.329,1.359-.259,2.425-1.525,2.427A2.95,2.95,0,0,1,2755.7-2131.083Zm3.141-.005c-.206-.851-.781-1.492-1.4-1.491s-.878.625-.667,1.495.775,1.492,1.4,1.491S2759.047-2130.224,2758.838-2131.088Z" transform="translate(-2336.953 2296.267)" fill="#4859a8"/>
        <path id="Path_1839" data-name="Path 1839" d="M2773.594-2132.355l-.778.2-.421-.843,1.263-.4h.711l1.143,4.72h-1.029Z" transform="translate(-2348.072 2296.195)" fill="#4859a8"/>
        <path id="Path_1840" data-name="Path 1840" d="M2786.7-2131.135c-.329-1.359.266-2.425,1.526-2.427a2.963,2.963,0,0,1,2.685,2.42c.329,1.359-.259,2.425-1.525,2.427A2.95,2.95,0,0,1,2786.7-2131.135Zm3.141,0c-.206-.85-.781-1.493-1.4-1.491s-.878.625-.667,1.495.774,1.492,1.4,1.491S2790.055-2130.276,2789.846-2131.14Z" transform="translate(-2357.489 2296.301)" fill="#4859a8"/>
        <path id="Path_1843" data-name="Path 1843" d="M2257.207-1967.227c-.329-1.359.266-2.425,1.525-2.428a2.964,2.964,0,0,1,2.686,2.421c.329,1.359-.26,2.425-1.525,2.427A2.951,2.951,0,0,1,2257.207-1967.227Zm3.141-.005c-.206-.85-.781-1.492-1.4-1.491s-.878.624-.667,1.495.775,1.492,1.4,1.491S2260.557-1966.369,2260.348-1967.233Z" transform="translate(-2006.82 2187.751)" fill="#4859a8"/>
        <path id="Path_1844" data-name="Path 1844" d="M2275.847-1967.259c-.329-1.359.266-2.425,1.525-2.427a2.963,2.963,0,0,1,2.686,2.42c.329,1.359-.26,2.425-1.525,2.427A2.95,2.95,0,0,1,2275.847-1967.259Zm3.141-.005c-.206-.85-.781-1.492-1.4-1.491s-.878.625-.667,1.5.774,1.492,1.4,1.491S2279.2-1966.4,2278.988-1967.264Z" transform="translate(-2019.164 2187.772)" fill="#4859a8"/>
        <path id="Path_1845" data-name="Path 1845" d="M2293.743-1968.531l-.777.2-.421-.843,1.263-.4h.711l1.143,4.72-1.029,0Z" transform="translate(-2030.281 2187.699)" fill="#4859a8"/>
        <path id="Path_1846" data-name="Path 1846" d="M2325.5-1967.343c-.329-1.359.266-2.425,1.525-2.427a2.963,2.963,0,0,1,2.686,2.42c.329,1.359-.26,2.425-1.525,2.428A2.951,2.951,0,0,1,2325.5-1967.343Zm3.141-.005c-.206-.85-.781-1.493-1.4-1.491s-.878.624-.667,1.495.774,1.492,1.4,1.491S2328.846-1966.484,2328.637-1967.348Z" transform="translate(-2052.046 2187.827)" fill="#4859a8"/>
        <path id="Path_1847" data-name="Path 1847" d="M2344.136-1967.374c-.329-1.359.266-2.425,1.525-2.428a2.963,2.963,0,0,1,2.685,2.421c.329,1.359-.259,2.425-1.525,2.427A2.951,2.951,0,0,1,2344.136-1967.374Zm3.141-.005c-.206-.85-.781-1.492-1.4-1.491s-.878.625-.668,1.5.775,1.492,1.4,1.491S2347.486-1966.516,2347.277-1967.38Z" transform="translate(-2064.39 2187.849)" fill="#4859a8"/>
        <path id="Path_1848" data-name="Path 1848" d="M2362.777-1967.406c-.329-1.359.266-2.425,1.525-2.427a2.963,2.963,0,0,1,2.685,2.42c.329,1.359-.259,2.425-1.525,2.427A2.95,2.95,0,0,1,2362.777-1967.406Zm3.141-.005c-.206-.85-.781-1.492-1.4-1.491s-.878.624-.668,1.495.775,1.492,1.4,1.491S2366.127-1966.547,2365.918-1967.411Z" transform="translate(-2076.735 2187.869)" fill="#4859a8"/>
        <path id="Path_1849" data-name="Path 1849" d="M2595.49-1967.227c-.329-1.359.266-2.425,1.525-2.428a2.963,2.963,0,0,1,2.685,2.421c.329,1.359-.259,2.425-1.525,2.427A2.951,2.951,0,0,1,2595.49-1967.227Zm3.141-.005c-.206-.85-.781-1.492-1.4-1.491s-.878.624-.667,1.495.774,1.492,1.4,1.491S2598.84-1966.369,2598.631-1967.233Z" transform="translate(-2230.853 2187.751)" fill="#272e69"/>
        <path id="Path_1850" data-name="Path 1850" d="M2614.13-1967.259c-.329-1.359.266-2.425,1.525-2.427a2.962,2.962,0,0,1,2.685,2.42c.33,1.359-.259,2.425-1.525,2.427A2.95,2.95,0,0,1,2614.13-1967.259Zm3.141-.005c-.206-.85-.781-1.492-1.4-1.491s-.878.625-.667,1.5.774,1.492,1.4,1.491S2617.48-1966.4,2617.271-1967.264Z" transform="translate(-2243.197 2187.772)" fill="#272e69"/>
        <path id="Path_1851" data-name="Path 1851" d="M2632.026-1968.531l-.777.2-.421-.843,1.264-.4h.711l1.143,4.72-1.029,0Z" transform="translate(-2254.316 2187.699)" fill="#272e69"/>
        <path id="Path_1858" data-name="Path 1858" d="M2426.528-1967.719c-.329-1.359.266-2.426,1.525-2.427a2.963,2.963,0,0,1,2.685,2.42c.33,1.359-.259,2.425-1.525,2.427A2.95,2.95,0,0,1,2426.528-1967.719Zm3.141-.005c-.206-.85-.781-1.492-1.4-1.491s-.878.625-.667,1.495.774,1.492,1.4,1.491S2429.878-1966.861,2429.669-1967.725Z" transform="translate(-2118.954 2188.077)" fill="#4859a8"/>
        <path id="Path_1859" data-name="Path 1859" d="M2444.424-1968.992l-.777.2-.421-.843,1.263-.4h.711l1.143,4.72-1.029,0Z" transform="translate(-2130.073 2188.005)" fill="#4859a8"/>
        <path id="Path_1860" data-name="Path 1860" d="M2457.536-1967.772c-.329-1.359.266-2.425,1.525-2.427a2.963,2.963,0,0,1,2.685,2.42c.329,1.359-.259,2.425-1.525,2.427A2.95,2.95,0,0,1,2457.536-1967.772Zm3.141-.005c-.206-.85-.782-1.493-1.4-1.491s-.878.624-.667,1.495.774,1.492,1.4,1.491S2460.886-1966.913,2460.677-1967.777Z" transform="translate(-2139.49 2188.111)" fill="#4859a8"/>
        <path id="Path_1864" data-name="Path 1864" d="M2144.764-2096.248l-.777.2-.421-.843,1.263-.4h.711l1.143,4.72-1.029,0Z" transform="translate(-1931.618 2272.282)" fill="#4859a8"/>
        <path id="Path_1865" data-name="Path 1865" d="M2157.875-2095.028c-.329-1.359.266-2.425,1.525-2.427a2.963,2.963,0,0,1,2.686,2.421c.329,1.359-.259,2.425-1.525,2.427A2.95,2.95,0,0,1,2157.875-2095.028Zm3.141-.005c-.206-.85-.781-1.492-1.4-1.491s-.878.625-.667,1.5.774,1.493,1.4,1.491S2161.225-2094.169,2161.016-2095.033Z" transform="translate(-1941.035 2272.389)" fill="#4859a8"/>
        <g id="Group_570" data-name="Group 570" transform="translate(252.405 152.7)">
          <path id="Path_1823" data-name="Path 1823" d="M2385.492-2162.017l-.777.2-.421-.844,1.263-.4h.711l1.143,4.72h-1.029Z" transform="translate(-2343.449 2163.139)" fill="#4859a8"/>
          <path id="Path_1824" data-name="Path 1824" d="M2398.6-2160.8c-.329-1.359.266-2.425,1.525-2.427a2.963,2.963,0,0,1,2.685,2.42c.329,1.359-.259,2.425-1.525,2.428A2.95,2.95,0,0,1,2398.6-2160.8Zm3.141-.005c-.206-.85-.781-1.493-1.4-1.491s-.878.624-.667,1.495.774,1.492,1.4,1.491S2401.954-2159.938,2401.745-2160.8Z" transform="translate(-2352.868 2163.245)" fill="#4859a8"/>
          <path id="Path_1825" data-name="Path 1825" d="M2417.244-2160.829c-.329-1.359.266-2.425,1.525-2.427a2.964,2.964,0,0,1,2.685,2.421c.329,1.359-.259,2.425-1.525,2.427A2.95,2.95,0,0,1,2417.244-2160.829Zm3.141,0c-.206-.851-.781-1.493-1.4-1.492s-.878.625-.668,1.5.775,1.492,1.4,1.491S2420.594-2159.97,2420.385-2160.833Z" transform="translate(-2365.212 2163.267)" fill="#4859a8"/>
          <path id="Path_1826" data-name="Path 1826" d="M2512.579-2160.8c-.329-1.359.266-2.425,1.525-2.427a2.963,2.963,0,0,1,2.686,2.42c.329,1.359-.259,2.425-1.525,2.428A2.95,2.95,0,0,1,2512.579-2160.8Zm3.141-.005c-.206-.85-.781-1.493-1.4-1.491s-.879.624-.668,1.495.775,1.492,1.4,1.491S2515.929-2159.938,2515.719-2160.8Z" transform="translate(-2428.348 2163.245)" fill="#4859a8"/>
          <path id="Path_1827" data-name="Path 1827" d="M2531.219-2160.829c-.33-1.359.266-2.425,1.525-2.427a2.964,2.964,0,0,1,2.685,2.421c.329,1.359-.259,2.425-1.525,2.427A2.949,2.949,0,0,1,2531.219-2160.829Zm3.141,0c-.206-.851-.781-1.493-1.4-1.492s-.878.625-.667,1.5.774,1.492,1.4,1.491S2534.569-2159.97,2534.359-2160.833Z" transform="translate(-2440.692 2163.267)" fill="#4859a8"/>
          <path id="Path_1828" data-name="Path 1828" d="M2549.86-2160.859c-.329-1.359.266-2.425,1.525-2.428a2.963,2.963,0,0,1,2.685,2.421c.329,1.359-.259,2.425-1.525,2.427A2.951,2.951,0,0,1,2549.86-2160.859Zm3.141-.005c-.206-.85-.781-1.492-1.4-1.491s-.878.625-.667,1.495.774,1.492,1.4,1.491S2553.21-2160,2553-2160.865Z" transform="translate(-2453.038 2163.287)" fill="#4859a8"/>
          <path id="Path_1836" data-name="Path 1836" d="M2272.889-2130.329c-.329-1.359.266-2.425,1.525-2.427a2.963,2.963,0,0,1,2.686,2.42c.329,1.359-.26,2.425-1.525,2.427A2.95,2.95,0,0,1,2272.889-2130.329Zm3.141-.005c-.206-.851-.781-1.492-1.4-1.491s-.878.625-.667,1.5.774,1.492,1.4,1.491S2276.239-2129.47,2276.03-2130.334Z" transform="translate(-2269.61 2143.068)" fill="#4859a8"/>
          <path id="Path_1837" data-name="Path 1837" d="M2291.529-2130.36c-.329-1.359.266-2.425,1.525-2.427a2.964,2.964,0,0,1,2.686,2.42c.329,1.359-.26,2.425-1.525,2.428A2.951,2.951,0,0,1,2291.529-2130.36Zm3.141,0c-.206-.85-.781-1.493-1.4-1.491s-.878.625-.667,1.495.774,1.492,1.4,1.491S2294.879-2129.5,2294.67-2130.365Z" transform="translate(-2281.955 2143.088)" fill="#4859a8"/>
          <path id="Path_1866" data-name="Path 1866" d="M2263.447-2095.2c-.33-1.359.266-2.425,1.525-2.427a2.963,2.963,0,0,1,2.685,2.42c.329,1.359-.26,2.425-1.525,2.427A2.95,2.95,0,0,1,2263.447-2095.2Zm3.141-.005c-.206-.85-.781-1.492-1.4-1.491s-.878.624-.667,1.5.774,1.492,1.4,1.491S2266.8-2094.346,2266.587-2095.21Z" transform="translate(-2263.357 2119.806)" fill="#4859a8"/>
          <path id="Path_1867" data-name="Path 1867" d="M2282.087-2095.237c-.329-1.359.266-2.425,1.525-2.427a2.963,2.963,0,0,1,2.685,2.42c.329,1.359-.26,2.425-1.525,2.427A2.951,2.951,0,0,1,2282.087-2095.237Zm3.141,0c-.206-.851-.781-1.492-1.4-1.492s-.878.625-.667,1.5.774,1.492,1.4,1.491S2285.437-2094.378,2285.228-2095.242Z" transform="translate(-2275.701 2119.827)" fill="#4859a8"/>
          <path id="Path_1868" data-name="Path 1868" d="M2300.728-2095.268c-.329-1.359.266-2.425,1.525-2.427a2.963,2.963,0,0,1,2.685,2.42c.329,1.359-.259,2.425-1.525,2.427A2.95,2.95,0,0,1,2300.728-2095.268Zm3.141-.005c-.206-.851-.781-1.493-1.4-1.491s-.878.624-.667,1.495.774,1.492,1.4,1.491S2304.078-2094.409,2303.869-2095.273Z" transform="translate(-2288.047 2119.848)" fill="#4859a8"/>
          <path id="Path_1869" data-name="Path 1869" d="M2318.625-2096.541l-.778.2-.421-.843,1.263-.4h.711l1.143,4.72h-1.029Z" transform="translate(-2299.165 2119.776)" fill="#4859a8"/>
          <path id="Path_1870" data-name="Path 1870" d="M2331.092-2096.562l-.778.2-.421-.844,1.263-.4h.711l1.143,4.72-1.029,0Z" transform="translate(-2307.421 2119.79)" fill="#4859a8"/>
          <path id="Path_1871" data-name="Path 1871" d="M2344.2-2095.342c-.329-1.359.266-2.425,1.525-2.427a2.964,2.964,0,0,1,2.686,2.421c.329,1.359-.259,2.425-1.525,2.427A2.951,2.951,0,0,1,2344.2-2095.342Zm3.142-.005c-.206-.85-.782-1.492-1.4-1.491s-.878.624-.667,1.495.774,1.492,1.4,1.491S2347.553-2094.483,2347.344-2095.347Z" transform="translate(-2316.839 2119.897)" fill="#4859a8"/>
        </g>
        <path id="Path_1872" data-name="Path 1872" d="M2826.265-2096.125c-.329-1.359.266-2.426,1.525-2.427a2.963,2.963,0,0,1,2.685,2.42c.329,1.359-.26,2.425-1.525,2.427A2.95,2.95,0,0,1,2826.265-2096.125Zm3.141-.005c-.206-.85-.781-1.492-1.4-1.491s-.878.625-.667,1.495.774,1.492,1.4,1.491S2829.615-2095.267,2829.405-2096.131Z" transform="translate(-2383.686 2273.116)" fill="#272e69"/>
        <path id="Path_1873" data-name="Path 1873" d="M2844.906-2096.157c-.329-1.359.266-2.425,1.525-2.427a2.963,2.963,0,0,1,2.685,2.42c.329,1.359-.259,2.425-1.525,2.427A2.95,2.95,0,0,1,2844.906-2096.157Zm3.141-.005c-.206-.851-.781-1.493-1.4-1.491s-.878.624-.667,1.495.774,1.492,1.4,1.491S2848.255-2095.3,2848.046-2096.162Z" transform="translate(-2396.032 2273.136)" fill="#272e69"/>
        <path id="Path_1876" data-name="Path 1876" d="M2153.261-2061.155l-.777.2-.421-.844,1.263-.4h.711l1.143,4.72-1.029,0Z" transform="translate(-1937.245 2249.041)" fill="#4859a8"/>
        <path id="Path_1877" data-name="Path 1877" d="M2166.372-2059.935c-.329-1.359.266-2.425,1.525-2.427a2.963,2.963,0,0,1,2.685,2.421c.329,1.359-.259,2.425-1.525,2.427A2.95,2.95,0,0,1,2166.372-2059.935Zm3.141-.005c-.206-.85-.781-1.492-1.4-1.491s-.878.624-.667,1.5.774,1.492,1.4,1.491S2169.722-2059.076,2169.513-2059.94Z" transform="translate(-1946.662 2249.148)" fill="#4859a8"/>
        <path id="Path_1878" data-name="Path 1878" d="M2253.3-2060.081c-.329-1.359.266-2.425,1.525-2.427a2.963,2.963,0,0,1,2.685,2.42c.329,1.359-.259,2.425-1.525,2.428A2.951,2.951,0,0,1,2253.3-2060.081Zm3.141-.005c-.206-.85-.781-1.492-1.4-1.491s-.878.624-.667,1.495.774,1.493,1.4,1.491S2256.652-2059.222,2256.444-2060.086Z" transform="translate(-2004.234 2249.245)" fill="#4859a8"/>
        <path id="Path_1879" data-name="Path 1879" d="M2271.944-2060.112c-.329-1.359.266-2.425,1.525-2.427a2.962,2.962,0,0,1,2.685,2.42c.329,1.359-.259,2.425-1.525,2.427A2.951,2.951,0,0,1,2271.944-2060.112Zm3.141-.005c-.206-.85-.782-1.492-1.4-1.491s-.878.625-.668,1.5.775,1.492,1.4,1.491S2275.293-2059.253,2275.084-2060.117Z" transform="translate(-2016.579 2249.265)" fill="#4859a8"/>
        <path id="Path_1880" data-name="Path 1880" d="M2201.248-1992.178c-.329-1.359.266-2.425,1.525-2.427a2.963,2.963,0,0,1,2.685,2.42c.329,1.359-.26,2.425-1.525,2.427A2.951,2.951,0,0,1,2201.248-1992.178Zm3.141-.005c-.206-.85-.781-1.492-1.4-1.491s-.878.625-.668,1.5.775,1.492,1.4,1.491S2204.6-1991.319,2204.388-1992.183Z" transform="translate(-1969.76 2204.275)" fill="#272e69"/>
        <path id="Path_1881" data-name="Path 1881" d="M2219.144-1993.45l-.777.2-.421-.843,1.263-.4h.711l1.143,4.72-1.029,0Z" transform="translate(-1980.877 2204.203)" fill="#272e69"/>
        <path id="Path_1882" data-name="Path 1882" d="M2161-2028.459l-.778.2-.421-.843,1.263-.4h.711l1.143,4.72-1.029,0Z" transform="translate(-1942.369 2227.388)" fill="#4859a8"/>
        <path id="Path_1883" data-name="Path 1883" d="M2174.109-2027.239c-.329-1.359.266-2.425,1.526-2.427a2.963,2.963,0,0,1,2.685,2.42c.329,1.359-.26,2.425-1.525,2.427A2.95,2.95,0,0,1,2174.109-2027.239Zm3.141-.005c-.206-.85-.781-1.492-1.4-1.491s-.878.625-.667,1.5.775,1.492,1.4,1.491S2177.459-2026.38,2177.25-2027.244Z" transform="translate(-1951.787 2227.494)" fill="#4859a8"/>
        <path id="Path_1884" data-name="Path 1884" d="M2192.75-2027.27c-.329-1.359.266-2.426,1.525-2.428a2.964,2.964,0,0,1,2.686,2.421c.329,1.359-.259,2.425-1.525,2.427A2.951,2.951,0,0,1,2192.75-2027.27Zm3.141-.005c-.206-.85-.781-1.493-1.4-1.491s-.878.624-.667,1.495.774,1.492,1.4,1.491S2196.1-2026.412,2195.891-2027.276Z" transform="translate(-1964.131 2227.516)" fill="#4859a8"/>
        <path id="Path_1885" data-name="Path 1885" d="M2210.647-2028.543l-.778.2-.421-.843,1.263-.4h.711l1.143,4.721-1.029,0Z" transform="translate(-1975.25 2227.443)" fill="#4859a8"/>
        <path id="Path_1886" data-name="Path 1886" d="M2223.759-2027.323c-.329-1.359.266-2.425,1.525-2.427a2.963,2.963,0,0,1,2.686,2.421c.329,1.359-.26,2.425-1.525,2.427A2.95,2.95,0,0,1,2223.759-2027.323Zm3.141-.005c-.206-.85-.781-1.493-1.4-1.491s-.878.624-.667,1.495.774,1.492,1.4,1.492S2227.109-2026.464,2226.9-2027.328Z" transform="translate(-1984.667 2227.55)" fill="#4859a8"/>
        <path id="Path_1887" data-name="Path 1887" d="M2242.4-2027.354c-.329-1.359.266-2.425,1.525-2.428a2.964,2.964,0,0,1,2.685,2.421c.329,1.359-.26,2.425-1.525,2.427A2.951,2.951,0,0,1,2242.4-2027.354Zm3.141-.005c-.206-.85-.781-1.493-1.4-1.491s-.878.624-.667,1.5.774,1.492,1.4,1.491S2245.749-2026.5,2245.54-2027.36Z" transform="translate(-1997.013 2227.571)" fill="#4859a8"/>
        <path id="Path_1888" data-name="Path 1888" d="M2261.04-2027.386c-.329-1.359.266-2.425,1.525-2.427a2.963,2.963,0,0,1,2.685,2.42c.329,1.359-.259,2.425-1.525,2.427A2.949,2.949,0,0,1,2261.04-2027.386Zm3.141-.005c-.206-.85-.781-1.493-1.4-1.491s-.878.625-.667,1.495.774,1.492,1.4,1.491S2264.39-2026.527,2264.181-2027.391Z" transform="translate(-2009.359 2227.592)" fill="#4859a8"/>
        <path id="Path_1889" data-name="Path 1889" d="M2279.681-2027.417c-.329-1.359.266-2.425,1.525-2.427a2.962,2.962,0,0,1,2.685,2.42c.33,1.359-.259,2.425-1.525,2.427A2.95,2.95,0,0,1,2279.681-2027.417Zm3.141-.005c-.206-.851-.782-1.492-1.4-1.491s-.879.624-.667,1.495.774,1.492,1.4,1.491S2283.031-2026.559,2282.822-2027.422Z" transform="translate(-2021.703 2227.612)" fill="#4859a8"/>
        <path id="Path_1890" data-name="Path 1890" d="M2298.321-2027.448c-.329-1.359.266-2.425,1.525-2.427a2.962,2.962,0,0,1,2.685,2.42c.33,1.359-.259,2.425-1.525,2.427A2.951,2.951,0,0,1,2298.321-2027.448Zm3.142-.005c-.206-.85-.782-1.492-1.4-1.491s-.878.625-.667,1.495.774,1.492,1.4,1.491S2301.671-2026.59,2301.462-2027.453Z" transform="translate(-2034.049 2227.633)" fill="#4859a8"/>
        <path id="Path_1891" data-name="Path 1891" d="M2316.962-2027.48c-.329-1.359.266-2.425,1.525-2.427a2.963,2.963,0,0,1,2.685,2.42c.329,1.359-.26,2.425-1.525,2.428A2.95,2.95,0,0,1,2316.962-2027.48Zm3.141-.005c-.206-.85-.781-1.493-1.4-1.491s-.878.624-.667,1.495.774,1.492,1.4,1.492S2320.312-2026.621,2320.1-2027.485Z" transform="translate(-2046.393 2227.654)" fill="#4859a8"/>
        <path id="Path_1892" data-name="Path 1892" d="M2334.859-2028.752l-.777.2-.421-.843,1.263-.4h.711l1.143,4.72-1.029,0Z" transform="translate(-2057.512 2227.582)" fill="#4859a8"/>
        <path id="Path_1893" data-name="Path 1893" d="M2347.326-2028.773l-.777.2-.421-.843,1.263-.4h.711l1.143,4.721h-1.029Z" transform="translate(-2065.768 2227.596)" fill="#4859a8"/>
        <path id="Path_1894" data-name="Path 1894" d="M2360.438-2027.553c-.329-1.359.266-2.425,1.525-2.427a2.963,2.963,0,0,1,2.685,2.42c.329,1.359-.259,2.425-1.525,2.428A2.951,2.951,0,0,1,2360.438-2027.553Zm3.141-.005c-.206-.85-.781-1.493-1.4-1.492s-.879.625-.668,1.5.775,1.492,1.4,1.491S2363.788-2026.695,2363.578-2027.558Z" transform="translate(-2075.185 2227.702)" fill="#4859a8"/>
        <path id="Path_1895" data-name="Path 1895" d="M2169.5-1993.366l-.777.2-.421-.843,1.263-.4h.711l1.143,4.721h-1.029Z" transform="translate(-1947.997 2204.148)" fill="#4859a8"/>
        <path id="Path_1896" data-name="Path 1896" d="M2182.606-1992.146c-.329-1.359.266-2.425,1.525-2.427a2.963,2.963,0,0,1,2.686,2.42c.329,1.359-.26,2.425-1.525,2.427A2.951,2.951,0,0,1,2182.606-1992.146Zm3.141-.005c-.206-.851-.781-1.493-1.4-1.492s-.879.624-.667,1.495.774,1.493,1.4,1.491S2185.957-1991.288,2185.747-1992.151Z" transform="translate(-1957.414 2204.254)" fill="#4859a8"/>
        <path id="Path_1897" data-name="Path 1897" d="M2232.256-1992.23c-.329-1.359.266-2.425,1.525-2.427a2.963,2.963,0,0,1,2.685,2.421c.329,1.359-.26,2.425-1.525,2.427A2.95,2.95,0,0,1,2232.256-1992.23Zm3.141-.005c-.206-.85-.781-1.493-1.4-1.492s-.878.625-.667,1.5.775,1.492,1.4,1.491S2235.606-1991.371,2235.4-1992.235Z" transform="translate(-1990.296 2204.309)" fill="#4859a8"/>
        <path id="Path_1898" data-name="Path 1898" d="M2250.9-1992.261c-.329-1.359.266-2.425,1.525-2.428a2.964,2.964,0,0,1,2.686,2.421c.329,1.359-.26,2.425-1.525,2.427A2.951,2.951,0,0,1,2250.9-1992.261Zm3.141-.005c-.206-.85-.781-1.492-1.4-1.491s-.878.625-.667,1.5.775,1.492,1.4,1.491S2254.246-1991.4,2254.037-1992.267Z" transform="translate(-2002.64 2204.331)" fill="#4859a8"/>
        <path id="Path_1899" data-name="Path 1899" d="M2217.731-1914.366c-.329-1.359.266-2.425,1.525-2.427a2.962,2.962,0,0,1,2.686,2.42c.329,1.359-.26,2.425-1.525,2.427A2.949,2.949,0,0,1,2217.731-1914.366Zm3.141-.005c-.206-.85-.781-1.492-1.4-1.491s-.878.624-.667,1.495.774,1.492,1.4,1.491S2221.081-1913.508,2220.872-1914.371Z" transform="translate(-1980.676 2152.742)" fill="#4859a8"/>
        <path id="Path_1900" data-name="Path 1900" d="M2235.628-1915.639l-.777.2-.421-.843,1.263-.4h.711l1.143,4.72-1.029,0Z" transform="translate(-1991.795 2152.671)" fill="#4859a8"/>
        <path id="Path_1901" data-name="Path 1901" d="M2185.979-1915.555l-.778.2-.421-.843,1.263-.4h.711l1.143,4.72-1.029,0Z" transform="translate(-1958.913 2152.615)" fill="#4859a8"/>
        <path id="Path_1902" data-name="Path 1902" d="M2199.09-1914.335c-.329-1.359.266-2.425,1.525-2.428a2.963,2.963,0,0,1,2.686,2.421c.329,1.359-.259,2.425-1.525,2.427A2.951,2.951,0,0,1,2199.09-1914.335Zm3.141-.005c-.206-.85-.781-1.492-1.4-1.491s-.878.624-.667,1.495.775,1.492,1.4,1.491S2202.44-1913.477,2202.231-1914.341Z" transform="translate(-1968.33 2152.722)" fill="#4859a8"/>
        <path id="Path_1903" data-name="Path 1903" d="M2248.74-1914.419c-.329-1.359.266-2.425,1.525-2.427a2.963,2.963,0,0,1,2.685,2.42c.329,1.359-.259,2.425-1.525,2.428A2.951,2.951,0,0,1,2248.74-1914.419Zm3.141-.005c-.206-.851-.781-1.492-1.4-1.491s-.878.624-.667,1.495.774,1.492,1.4,1.491S2252.09-1913.56,2251.88-1914.424Z" transform="translate(-2001.212 2152.778)" fill="#272e69"/>
        <path id="Path_1904" data-name="Path 1904" d="M2267.38-1914.45c-.329-1.359.266-2.425,1.525-2.427a2.963,2.963,0,0,1,2.685,2.42c.329,1.359-.259,2.425-1.525,2.427A2.95,2.95,0,0,1,2267.38-1914.45Zm3.141-.005c-.206-.851-.781-1.493-1.4-1.492s-.878.624-.667,1.5.775,1.492,1.4,1.491S2270.729-1913.591,2270.521-1914.455Z" transform="translate(-2013.556 2152.798)" fill="#272e69"/>
        <path id="Path_1905" data-name="Path 1905" d="M2194.7-1889.337c-.329-1.359.266-2.425,1.525-2.427a2.963,2.963,0,0,1,2.686,2.42c.329,1.359-.26,2.425-1.525,2.427A2.95,2.95,0,0,1,2194.7-1889.337Zm3.141,0c-.206-.851-.781-1.492-1.4-1.492s-.879.624-.667,1.495.774,1.493,1.4,1.491S2198.049-1888.478,2197.839-1889.342Z" transform="translate(-1965.422 2136.167)" fill="#4859a8"/>
        <path id="Path_1906" data-name="Path 1906" d="M2212.6-1890.61l-.777.2-.421-.844,1.263-.4h.711l1.143,4.72-1.029,0Z" transform="translate(-1976.541 2136.095)" fill="#4859a8"/>
        <path id="Path_1907" data-name="Path 1907" d="M2225.707-1889.389c-.329-1.359.266-2.425,1.525-2.427a2.963,2.963,0,0,1,2.685,2.42c.329,1.359-.26,2.425-1.525,2.427A2.95,2.95,0,0,1,2225.707-1889.389Zm3.141-.005c-.206-.85-.781-1.493-1.4-1.491s-.878.624-.667,1.495.774,1.493,1.4,1.491S2229.057-1888.53,2228.848-1889.394Z" transform="translate(-1985.958 2136.201)" fill="#4859a8"/>
        <path id="Path_1908" data-name="Path 1908" d="M2244.347-1889.42c-.329-1.359.266-2.425,1.525-2.427a2.963,2.963,0,0,1,2.686,2.42c.329,1.359-.259,2.425-1.525,2.427A2.951,2.951,0,0,1,2244.347-1889.42Zm3.141-.005c-.206-.85-.781-1.492-1.4-1.491s-.878.624-.667,1.495.774,1.492,1.4,1.492S2247.7-1888.562,2247.488-1889.425Z" transform="translate(-1998.304 2136.222)" fill="#4859a8"/>
        <path id="Path_1909" data-name="Path 1909" d="M2269.537-1992.293c-.329-1.359.266-2.425,1.525-2.427a2.963,2.963,0,0,1,2.685,2.42c.329,1.359-.259,2.425-1.525,2.427A2.95,2.95,0,0,1,2269.537-1992.293Zm3.141-.005c-.206-.85-.781-1.492-1.4-1.491s-.878.625-.667,1.495.775,1.492,1.4,1.491S2272.887-1991.434,2272.678-1992.3Z" transform="translate(-2014.985 2204.351)" fill="#4859a8"/>
        <path id="Path_1910" data-name="Path 1910" d="M2288.178-1992.324c-.329-1.359.266-2.425,1.525-2.427a2.963,2.963,0,0,1,2.685,2.42c.329,1.359-.259,2.425-1.525,2.427A2.951,2.951,0,0,1,2288.178-1992.324Zm3.141-.005c-.206-.851-.781-1.492-1.4-1.491s-.878.624-.667,1.495.774,1.492,1.4,1.491S2291.528-1991.465,2291.319-1992.329Z" transform="translate(-2027.331 2204.371)" fill="#4859a8"/>
        <path id="Path_1911" data-name="Path 1911" d="M2241.406-1823.827c-.33-1.359.266-2.425,1.525-2.427a2.963,2.963,0,0,1,2.685,2.42c.329,1.359-.259,2.425-1.525,2.427A2.95,2.95,0,0,1,2241.406-1823.827Zm3.141-.005c-.206-.85-.781-1.492-1.4-1.491s-.878.625-.668,1.5.775,1.492,1.4,1.491S2244.756-1822.968,2244.546-1823.832Z" transform="translate(-1996.355 2092.781)" fill="#272e69"/>
        <path id="Path_1912" data-name="Path 1912" d="M2259.3-1825.1l-.777.2-.421-.843,1.263-.4h.711l1.143,4.72-1.029,0Z" transform="translate(-2007.472 2092.709)" fill="#272e69"/>
        <path id="Path_1913" data-name="Path 1913" d="M2201.156-1860.109l-.777.2-.421-.843,1.263-.4h.711l1.143,4.72-1.029,0Z" transform="translate(-1968.964 2115.895)" fill="#4859a8"/>
        <path id="Path_1914" data-name="Path 1914" d="M2214.267-1858.888c-.329-1.359.266-2.426,1.526-2.428a2.963,2.963,0,0,1,2.685,2.42c.329,1.359-.26,2.425-1.525,2.428A2.952,2.952,0,0,1,2214.267-1858.888Zm3.141-.005c-.206-.851-.781-1.493-1.4-1.491s-.878.624-.667,1.495.774,1.492,1.4,1.491S2217.617-1858.03,2217.408-1858.894Z" transform="translate(-1978.383 2116.002)" fill="#4859a8"/>
        <path id="Path_1915" data-name="Path 1915" d="M2232.909-1858.92c-.33-1.359.266-2.425,1.525-2.427a2.963,2.963,0,0,1,2.686,2.42c.329,1.359-.26,2.425-1.525,2.427A2.949,2.949,0,0,1,2232.909-1858.92Zm3.141-.005c-.206-.85-.781-1.493-1.4-1.491s-.878.625-.667,1.5.774,1.492,1.4,1.491S2236.259-1858.061,2236.049-1858.925Z" transform="translate(-1990.728 2116.022)" fill="#4859a8"/>
        <path id="Path_1916" data-name="Path 1916" d="M2250.805-1860.192l-.777.2-.421-.843,1.263-.4h.711l1.143,4.72-1.029,0Z" transform="translate(-2001.846 2115.95)" fill="#4859a8"/>
        <path id="Path_1917" data-name="Path 1917" d="M2209.653-1825.016l-.777.2-.421-.843,1.263-.4h.711l1.143,4.72-1.029,0Z" transform="translate(-1974.592 2092.655)" fill="#4859a8"/>
        <path id="Path_1918" data-name="Path 1918" d="M2222.765-1823.8c-.329-1.359.266-2.426,1.525-2.428a2.963,2.963,0,0,1,2.685,2.42c.329,1.359-.26,2.425-1.525,2.428A2.951,2.951,0,0,1,2222.765-1823.8Zm3.141-.005c-.206-.85-.781-1.492-1.4-1.491s-.879.624-.667,1.495.774,1.492,1.4,1.491S2226.115-1822.937,2225.906-1823.8Z" transform="translate(-1984.009 2092.761)" fill="#4859a8"/>
        <path id="Path_1919" data-name="Path 1919" d="M2272.414-1823.879c-.329-1.359.266-2.425,1.525-2.428a2.964,2.964,0,0,1,2.686,2.421c.329,1.359-.26,2.425-1.525,2.427A2.95,2.95,0,0,1,2272.414-1823.879Zm3.141-.005c-.206-.85-.781-1.492-1.4-1.491s-.878.624-.667,1.495.774,1.492,1.4,1.491S2275.764-1823.021,2275.555-1823.885Z" transform="translate(-2016.891 2092.817)" fill="#4859a8"/>
        <path id="Path_1920" data-name="Path 1920" d="M2291.054-1823.911c-.329-1.359.266-2.425,1.525-2.427a2.963,2.963,0,0,1,2.685,2.42c.329,1.359-.26,2.425-1.525,2.428A2.95,2.95,0,0,1,2291.054-1823.911Zm3.141-.005c-.206-.85-.781-1.493-1.4-1.492s-.878.625-.667,1.5.775,1.492,1.4,1.491S2294.4-1823.052,2294.2-1823.916Z" transform="translate(-2029.235 2092.837)" fill="#4859a8"/>
        <path id="Path_1921" data-name="Path 1921" d="M2248.593-1799.05c-.329-1.359.266-2.425,1.525-2.427a2.963,2.963,0,0,1,2.685,2.42c.329,1.359-.26,2.425-1.525,2.427A2.951,2.951,0,0,1,2248.593-1799.05Zm3.141-.005c-.206-.85-.781-1.492-1.4-1.492s-.878.625-.667,1.5.774,1.492,1.4,1.492S2251.943-1798.192,2251.734-1799.055Z" transform="translate(-2001.115 2076.373)" fill="#272e69"/>
        <path id="Path_1922" data-name="Path 1922" d="M2266.49-1800.323l-.777.2-.421-.843,1.263-.4h.711l1.143,4.721h-1.029Z" transform="translate(-2012.233 2076.301)" fill="#272e69"/>
        <path id="Path_1923" data-name="Path 1923" d="M2229.952-1799.019c-.329-1.359.266-2.425,1.525-2.427a2.962,2.962,0,0,1,2.685,2.42c.329,1.359-.259,2.425-1.525,2.427A2.951,2.951,0,0,1,2229.952-1799.019Zm3.141-.005c-.206-.851-.781-1.492-1.4-1.491s-.878.624-.667,1.495.775,1.492,1.4,1.491S2233.3-1798.161,2233.093-1799.024Z" transform="translate(-1988.77 2076.352)" fill="#4859a8"/>
        <path id="Path_1924" data-name="Path 1924" d="M2279.6-1799.1c-.329-1.359.266-2.425,1.525-2.427a2.962,2.962,0,0,1,2.686,2.42c.329,1.359-.259,2.425-1.525,2.427A2.951,2.951,0,0,1,2279.6-1799.1Zm3.141-.005c-.206-.85-.781-1.492-1.4-1.491s-.878.625-.667,1.495.774,1.492,1.4,1.491S2282.951-1798.244,2282.742-1799.107Z" transform="translate(-2021.65 2076.407)" fill="#4859a8"/>
        <path id="Path_1925" data-name="Path 1925" d="M2298.242-1799.134c-.329-1.359.266-2.425,1.525-2.427a2.963,2.963,0,0,1,2.685,2.42c.329,1.359-.26,2.425-1.525,2.427A2.95,2.95,0,0,1,2298.242-1799.134Zm3.141-.005c-.206-.85-.781-1.492-1.4-1.492s-.878.625-.667,1.5.774,1.493,1.4,1.492S2301.592-1798.275,2301.383-1799.139Z" transform="translate(-2033.996 2076.428)" fill="#4859a8"/>
        <path id="Path_1926" data-name="Path 1926" d="M2309.695-1823.942c-.329-1.359.266-2.425,1.525-2.428a2.963,2.963,0,0,1,2.685,2.42c.329,1.359-.259,2.425-1.525,2.427A2.951,2.951,0,0,1,2309.695-1823.942Zm3.141-.005c-.206-.85-.781-1.492-1.4-1.492s-.878.625-.667,1.5.775,1.492,1.4,1.491S2313.045-1823.084,2312.836-1823.948Z" transform="translate(-2041.58 2092.858)" fill="#4859a8"/>
        <path id="Path_1927" data-name="Path 1927" d="M2328.336-1823.974c-.329-1.359.266-2.425,1.525-2.427a2.963,2.963,0,0,1,2.685,2.42c.329,1.359-.259,2.425-1.525,2.427A2.95,2.95,0,0,1,2328.336-1823.974Zm3.141-.005c-.206-.85-.781-1.493-1.4-1.492s-.878.625-.667,1.495.774,1.492,1.4,1.491S2331.686-1823.115,2331.477-1823.979Z" transform="translate(-2053.927 2092.879)" fill="#4859a8"/>
        <path id="Path_1935" data-name="Path 1935" d="M2834.762-2027.563c-.329-1.359.266-2.426,1.525-2.427a2.963,2.963,0,0,1,2.685,2.421c.329,1.359-.259,2.425-1.525,2.427A2.951,2.951,0,0,1,2834.762-2027.563Zm3.141-.005c-.206-.85-.781-1.493-1.4-1.491s-.879.624-.667,1.495.774,1.492,1.4,1.492S2838.112-2026.705,2837.9-2027.569Z" transform="translate(-2389.315 2227.71)" fill="#272e69"/>
        <path id="Path_1936" data-name="Path 1936" d="M2853.4-2027.595c-.329-1.359.266-2.425,1.525-2.427a2.962,2.962,0,0,1,2.685,2.42c.329,1.359-.259,2.425-1.525,2.427A2.95,2.95,0,0,1,2853.4-2027.595Zm3.142-.005c-.206-.85-.782-1.492-1.4-1.491s-.878.624-.667,1.495.775,1.492,1.4,1.492S2856.753-2026.736,2856.544-2027.6Z" transform="translate(-2401.66 2227.73)" fill="#272e69"/>
        <path id="Path_1937" data-name="Path 1937" d="M2872.044-2027.626c-.329-1.359.266-2.425,1.525-2.427a2.962,2.962,0,0,1,2.685,2.42c.329,1.359-.26,2.425-1.525,2.427A2.95,2.95,0,0,1,2872.044-2027.626Zm3.141-.005c-.206-.851-.781-1.493-1.4-1.491s-.878.624-.667,1.495.774,1.492,1.4,1.491S2875.394-2026.768,2875.185-2027.631Z" transform="translate(-2414.005 2227.751)" fill="#272e69"/>
        <path id="Path_1938" data-name="Path 1938" d="M2889.941-2028.9l-.777.2-.421-.843,1.263-.4h.711l1.143,4.72-1.029,0Z" transform="translate(-2425.124 2227.679)" fill="#272e69"/>
        <g id="Group_569" data-name="Group 569" transform="translate(387.611 162.69)">
          <path id="Path_1841" data-name="Path 1841" d="M2855.049-2131.281c-.329-1.359.266-2.425,1.525-2.427a2.963,2.963,0,0,1,2.686,2.421c.329,1.359-.259,2.425-1.525,2.427A2.95,2.95,0,0,1,2855.049-2131.281Zm3.141-.005c-.206-.85-.782-1.492-1.4-1.491s-.878.624-.667,1.5.774,1.492,1.4,1.491S2858.4-2130.423,2858.19-2131.287Z" transform="translate(-2790.361 2133.709)" fill="#4859a8"/>
          <path id="Path_1842" data-name="Path 1842" d="M2872.946-2132.554l-.777.2-.421-.844,1.263-.4h.711l1.143,4.72-1.029,0Z" transform="translate(-2801.48 2133.637)" fill="#4859a8"/>
          <g id="Group_568" data-name="Group 568" transform="translate(0 55.075)">
            <g id="Group_567" data-name="Group 567" transform="translate(0 0.272)">
              <path id="Path_1852" data-name="Path 1852" d="M2720.462-1967.227c-.329-1.359.266-2.425,1.525-2.428a2.964,2.964,0,0,1,2.686,2.421c.329,1.359-.26,2.425-1.525,2.427A2.951,2.951,0,0,1,2720.462-1967.227Zm3.141-.005c-.206-.85-.781-1.492-1.4-1.491s-.878.624-.667,1.495.775,1.492,1.4,1.491S2723.812-1966.369,2723.6-1967.233Z" transform="translate(-2701.228 1969.715)" fill="#4859a8"/>
              <path id="Path_1853" data-name="Path 1853" d="M2739.1-1967.259c-.329-1.359.266-2.425,1.525-2.427a2.962,2.962,0,0,1,2.685,2.42c.329,1.359-.259,2.425-1.525,2.427A2.95,2.95,0,0,1,2739.1-1967.259Zm3.141-.005c-.206-.85-.781-1.492-1.4-1.491s-.878.625-.667,1.5.774,1.492,1.4,1.491S2742.452-1966.4,2742.243-1967.264Z" transform="translate(-2713.573 1969.736)" fill="#4859a8"/>
              <path id="Path_1854" data-name="Path 1854" d="M2757-1968.531l-.777.2-.421-.843,1.263-.4h.711l1.143,4.72-1.029,0Z" transform="translate(-2724.691 1969.663)" fill="#4859a8"/>
              <path id="Path_1855" data-name="Path 1855" d="M2663.779-1967.343c-.329-1.359.266-2.425,1.525-2.427a2.963,2.963,0,0,1,2.685,2.42c.329,1.359-.259,2.425-1.525,2.428A2.951,2.951,0,0,1,2663.779-1967.343Zm3.141-.005c-.206-.85-.781-1.493-1.4-1.491s-.878.624-.667,1.495.775,1.492,1.4,1.491S2667.129-1966.484,2666.92-1967.348Z" transform="translate(-2663.689 1969.791)" fill="#4859a8"/>
              <path id="Path_1856" data-name="Path 1856" d="M2682.419-1967.374c-.329-1.359.266-2.425,1.525-2.428a2.963,2.963,0,0,1,2.686,2.421c.329,1.359-.259,2.425-1.525,2.427A2.951,2.951,0,0,1,2682.419-1967.374Zm3.141-.005c-.206-.85-.781-1.492-1.4-1.491s-.878.625-.668,1.5.775,1.492,1.4,1.491S2685.77-1966.516,2685.561-1967.38Z" transform="translate(-2676.033 1969.812)" fill="#4859a8"/>
              <path id="Path_1857" data-name="Path 1857" d="M2701.06-1967.406c-.329-1.359.266-2.425,1.526-2.427a2.963,2.963,0,0,1,2.685,2.42c.329,1.359-.259,2.425-1.525,2.427A2.95,2.95,0,0,1,2701.06-1967.406Zm3.141-.005c-.206-.85-.781-1.492-1.4-1.491s-.878.624-.667,1.495.774,1.492,1.4,1.491S2704.41-1966.547,2704.2-1967.411Z" transform="translate(-2688.379 1969.833)" fill="#4859a8"/>
            </g>
            <path id="Path_1861" data-name="Path 1861" d="M2826.229-1968.158c-.329-1.359.266-2.426,1.525-2.428a2.963,2.963,0,0,1,2.685,2.421c.329,1.359-.259,2.425-1.525,2.427A2.95,2.95,0,0,1,2826.229-1968.158Zm3.141-.005c-.206-.85-.781-1.492-1.4-1.492s-.878.625-.668,1.5.775,1.492,1.4,1.491S2829.58-1967.3,2829.371-1968.164Z" transform="translate(-2771.275 1970.604)" fill="#4859a8"/>
            <path id="Path_1862" data-name="Path 1862" d="M2844.126-1969.431l-.777.2-.421-.843,1.263-.4h.711l1.143,4.72-1.029,0Z" transform="translate(-2782.394 1970.532)" fill="#4859a8"/>
            <path id="Path_1863" data-name="Path 1863" d="M2857.238-1968.211c-.329-1.359.266-2.425,1.525-2.427a2.962,2.962,0,0,1,2.685,2.421c.329,1.359-.259,2.425-1.525,2.427A2.95,2.95,0,0,1,2857.238-1968.211Zm3.14-.005c-.206-.85-.781-1.492-1.4-1.491s-.878.624-.667,1.495.775,1.492,1.4,1.491S2860.587-1967.352,2860.378-1968.216Z" transform="translate(-2791.811 1970.638)" fill="#4859a8"/>
          </g>
          <path id="Path_1874" data-name="Path 1874" d="M2863.547-2096.188c-.329-1.359.266-2.425,1.525-2.427a2.963,2.963,0,0,1,2.685,2.42c.329,1.359-.259,2.425-1.525,2.427A2.951,2.951,0,0,1,2863.547-2096.188Zm3.141-.005c-.206-.851-.781-1.492-1.4-1.492s-.878.625-.668,1.5.775,1.492,1.4,1.491S2866.9-2095.33,2866.688-2096.194Z" transform="translate(-2795.989 2110.468)" fill="#4859a8"/>
          <path id="Path_1875" data-name="Path 1875" d="M2881.444-2097.461l-.778.2-.421-.844,1.263-.4h.711l1.143,4.72-1.029,0Z" transform="translate(-2807.106 2110.396)" fill="#4859a8"/>
          <path id="Path_1928" data-name="Path 1928" d="M2821.652-2062.253l-.778.2-.421-.843,1.263-.4h.711l1.143,4.72-1.029,0Z" transform="translate(-2767.509 2087.079)" fill="#4859a8"/>
          <path id="Path_1929" data-name="Path 1929" d="M2834.762-2061.033c-.329-1.359.266-2.425,1.525-2.427a2.963,2.963,0,0,1,2.685,2.42c.329,1.359-.259,2.425-1.525,2.427A2.952,2.952,0,0,1,2834.762-2061.033Zm3.141-.005c-.206-.85-.781-1.492-1.4-1.491s-.879.625-.667,1.495.774,1.492,1.4,1.491S2838.112-2060.174,2837.9-2061.038Z" transform="translate(-2776.926 2087.185)" fill="#4859a8"/>
          <path id="Path_1930" data-name="Path 1930" d="M2853.4-2061.064c-.329-1.359.266-2.425,1.525-2.427a2.963,2.963,0,0,1,2.685,2.42c.329,1.359-.259,2.425-1.525,2.427A2.95,2.95,0,0,1,2853.4-2061.064Zm3.142-.005c-.206-.851-.782-1.493-1.4-1.491s-.878.624-.667,1.495.775,1.492,1.4,1.491S2856.753-2060.205,2856.544-2061.069Z" transform="translate(-2789.271 2087.206)" fill="#4859a8"/>
          <path id="Path_1931" data-name="Path 1931" d="M2872.044-2061.1c-.329-1.359.266-2.426,1.525-2.428a2.963,2.963,0,0,1,2.685,2.421c.329,1.359-.26,2.425-1.525,2.427A2.951,2.951,0,0,1,2872.044-2061.1Zm3.141-.006c-.206-.85-.781-1.492-1.4-1.491s-.878.625-.667,1.495.774,1.492,1.4,1.491S2875.394-2060.237,2875.185-2061.1Z" transform="translate(-2801.615 2087.227)" fill="#4859a8"/>
          <path id="Path_1932" data-name="Path 1932" d="M2889.941-2062.368l-.777.2-.421-.844,1.263-.4h.711l1.143,4.72-1.029,0Z" transform="translate(-2812.735 2087.155)" fill="#4859a8"/>
          <path id="Path_1933" data-name="Path 1933" d="M2803.754-2027.511c-.329-1.359.266-2.425,1.525-2.428a2.963,2.963,0,0,1,2.685,2.421c.329,1.359-.259,2.425-1.525,2.427A2.95,2.95,0,0,1,2803.754-2027.511Zm3.141-.005c-.206-.85-.781-1.492-1.4-1.491s-.878.624-.667,1.5.774,1.492,1.4,1.491S2807.1-2026.653,2806.9-2027.517Z" transform="translate(-2756.391 2064.986)" fill="#4859a8"/>
          <path id="Path_1934" data-name="Path 1934" d="M2821.652-2028.784l-.778.2-.421-.843,1.263-.4h.711l1.143,4.72-1.029,0Z" transform="translate(-2767.509 2064.913)" fill="#4859a8"/>
          <path id="Path_1939" data-name="Path 1939" d="M2886.15-1835.514l-.778.2-.42-.843,1.264-.4h.71l1.143,4.72-1.029,0Z" transform="translate(-2810.224 1936.917)" fill="#4859a8"/>
          <path id="Path_1940" data-name="Path 1940" d="M2899.262-1834.293c-.33-1.359.266-2.425,1.525-2.427a2.962,2.962,0,0,1,2.685,2.42c.329,1.359-.259,2.425-1.525,2.427A2.95,2.95,0,0,1,2899.262-1834.293Zm3.141-.005c-.206-.851-.781-1.493-1.4-1.491s-.878.624-.668,1.495.775,1.492,1.4,1.491S2902.612-1833.435,2902.4-1834.3Z" transform="translate(-2819.641 1937.023)" fill="#4859a8"/>
          <path id="Path_1941" data-name="Path 1941" d="M2917.9-1834.324c-.329-1.359.266-2.425,1.525-2.428a2.963,2.963,0,0,1,2.685,2.421c.329,1.359-.259,2.425-1.525,2.427A2.951,2.951,0,0,1,2917.9-1834.324Zm3.141-.005c-.206-.85-.781-1.492-1.4-1.491s-.878.624-.667,1.495.774,1.492,1.4,1.491S2921.252-1833.466,2921.044-1834.33Z" transform="translate(-2831.987 1937.044)" fill="#4859a8"/>
          <path id="Path_1942" data-name="Path 1942" d="M2867.836-1812.764l-.778.2-.421-.843,1.263-.4h.711l1.143,4.721-1.029,0Z" transform="translate(-2798.095 1921.851)" fill="#4859a8"/>
          <path id="Path_1943" data-name="Path 1943" d="M2880.948-1811.542c-.329-1.359.266-2.425,1.525-2.427a2.962,2.962,0,0,1,2.685,2.42c.33,1.359-.259,2.425-1.525,2.427A2.95,2.95,0,0,1,2880.948-1811.542Zm3.141-.005c-.206-.851-.781-1.492-1.4-1.491s-.878.624-.667,1.495.774,1.492,1.4,1.491S2884.3-1810.684,2884.089-1811.548Z" transform="translate(-2807.512 1921.957)" fill="#4859a8"/>
          <path id="Path_1944" data-name="Path 1944" d="M2899.588-1811.574c-.329-1.359.266-2.425,1.525-2.427a2.962,2.962,0,0,1,2.685,2.42c.329,1.359-.26,2.425-1.525,2.427A2.951,2.951,0,0,1,2899.588-1811.574Zm3.141-.005c-.206-.85-.781-1.492-1.4-1.491s-.878.625-.667,1.5.774,1.492,1.4,1.491S2902.938-1810.716,2902.729-1811.579Z" transform="translate(-2819.858 1921.977)" fill="#4859a8"/>
          <path id="Path_1945" data-name="Path 1945" d="M2936.543-1834.356c-.329-1.359.266-2.425,1.525-2.427a2.963,2.963,0,0,1,2.686,2.42c.329,1.359-.26,2.425-1.525,2.427A2.95,2.95,0,0,1,2936.543-1834.356Zm3.141-.005c-.206-.85-.781-1.492-1.4-1.491s-.879.625-.668,1.5.775,1.492,1.4,1.491S2939.894-1833.5,2939.684-1834.361Z" transform="translate(-2844.332 1937.065)" fill="#4859a8"/>
          <path id="Path_1946" data-name="Path 1946" d="M2954.44-1835.628l-.777.2-.421-.843,1.263-.4h.711l1.143,4.72-1.029,0Z" transform="translate(-2855.45 1936.993)" fill="#4859a8"/>
        </g>
        <path id="Path_1947" data-name="Path 1947" d="M3180.083-1991.056a12.932,12.932,0,0,1,11.227,5.2c3.512,4.793,1.08,10.444,9.86,14.8s7.518,9.848,5.763,16.736-9.118,15.217-17.9,14.812-23.793-18.481-23.252-24.543,3.149-6.786,1.081-10.793C3163.622-1981.12,3169.632-1990.066,3180.083-1991.056Z" transform="translate(-2608.589 2201.95)" fill="#30262a"/>
        <path id="Path_1948" data-name="Path 1948" d="M3197.364-1921.114a.467.467,0,0,0,.063-.1c-.972-.348-1.056-1.767-.155-7.679l-.466.022-7.838.375s-.183,2.422-.514,4.68c-.065.45-.137.892-.215,1.308C3182.341-1916.637,3195.036-1913.981,3197.364-1921.114Z" transform="translate(-2622.446 2160.757)" fill="#ffbc96"/>
        <path id="Path_1949" data-name="Path 1949" d="M3170.861-1452.673h16.933a9.293,9.293,0,0,0-.479-4.539c-.847-1.879-2.166-3.038-2.286-4.478a5.087,5.087,0,0,1-4.849,1.491,18.547,18.547,0,0,1-2.937,3.809C3176.136-1455.594,3171.2-1455.878,3170.861-1452.673Z" transform="translate(-2611.963 1851.343)" fill="#4859a8"/>
        <path id="Path_1950" data-name="Path 1950" d="M3180.544-1732.872c-1.578,3.893-2.791,7.431-2.41,10.551a.08.08,0,0,0,0,.016,8.536,8.536,0,0,0,.189,1.019c5.557,22.219-2.32,51.149-2.32,51.149a32.79,32.79,0,0,1-3.587.616c-2.669.238-3.058-.556-3.058-.556s-2.65-23.593-11.229-68.694a125.148,125.148,0,0,1-2.172-15.908c-.135-1.734-.265-3.663-.408-5.924-.389-6.078.532-16.308,5.094-19,2.075-1.227,4.9-.889,8.7,2.1.3.238.583.519.919.759C3193.594-1759.944,3185.366-1744.749,3180.544-1732.872Z" transform="translate(-2601.771 2062.325)" fill="#002c54"/>
        <path id="Path_1951" data-name="Path 1951" d="M3205.315-1674.314c-.262-.916-8.655-30.236-8.8-32.462-.305-4.789,10.787,8.436,11.205,21.91C3206.148-1680.973,3204.935-1677.434,3205.315-1674.314Z" transform="translate(-2628.951 2014.318)" fill="#03284a"/>
        <path id="Path_1952" data-name="Path 1952" d="M3366.22-1570.7l-7.047-15.4a9.292,9.292,0,0,0-3.927,2.324c-1.356,1.552-2.337,1.277-5.425-.867,1.162,1.8,1.319,2.854,2.039,5.217.567.07,3.8,3.194,7.1,4.055C3360.281-1575.024,3363.164-1569.676,3366.22-1570.7Z" transform="translate(-2730.481 1933.733)" fill="#4859a8"/>
        <path id="Path_1953" data-name="Path 1953" d="M3178.454-1765.944s15.173,52.748,20.733,56.143,33.048,10.148,41.164,11.769a15.661,15.661,0,0,0-.134-4.412,19.524,19.524,0,0,0-.933-2.263s-14.434-14.44-28.54-16.464c-2.954-.424,1.185-46.547-18.85-48.355C3173.593-1771.178,3178.454-1765.944,3178.454-1765.944Z" transform="translate(-2616.603 2055.426)" fill="#002c54"/>
        <path id="Path_1954" data-name="Path 1954" d="M3106.053-2019.4s.339-1.691.721-2.981c.169-.571-1.009-4.321-1.823-4.783s-2.937,2.064-2.337,4c.309,1,.815,4.238.815,4.238Z" transform="translate(-2566.694 2225.875)" fill="#ffbc96"/>
        <path id="Path_1955" data-name="Path 1955" d="M3318.774-2003.036c.1.214.248.6.376.957,0-.1,0-.2,0-.291.007-.717,2.683-4.619,3.784-4.862s2.654,3.41,1.28,5.431c-.706,1.037-2.839,4.736-2.839,4.736l-2.361-1.426a3.3,3.3,0,0,0-.652-1.8c-.321-.407-.333-2.32-.448-3.155C3317.918-2003.448,3318.391-2003.826,3318.774-2003.036Z" transform="translate(-2709.354 2212.645)" fill="#ffbc96"/>
        <path id="Path_1956" data-name="Path 1956" d="M3192.425-1928.455s-.183,2.422-.514,4.68c4.278.514,7.108-3.038,8.351-5.055Z" transform="translate(-2625.903 2160.714)" fill="#f2aa81"/>
        <path id="Path_1957" data-name="Path 1957" d="M3195.387-1966.743a24.585,24.585,0,0,0,4.065-6.662c.763-2.278.862-11.127-8.039-11.175a11.971,11.971,0,0,0-5.186,1.126c-2.082,1-5.223,3.349-3.3,11.371l.412,2.674Z" transform="translate(-2619.559 2197.637)" fill="#30262a"/>
        <path id="Path_1958" data-name="Path 1958" d="M3183.067-1957.508s10.924,1.81,11.946-5.01,3.121-11.18-3.811-12.624-8.68.955-9.575,3.149S3180.252-1958.154,3183.067-1957.508Z" transform="translate(-2618.631 2191.676)" fill="#ffbc96"/>
        <path id="Path_1959" data-name="Path 1959" d="M3193.4-1979.123s2.9,8.494,7.329,10.361,6.6.932,6.6.932a13.174,13.174,0,0,1-3.117-8.332S3196.232-1982.595,3193.4-1979.123Z" transform="translate(-2626.891 2194.702)" fill="#30262a"/>
        <path id="Path_1960" data-name="Path 1960" d="M3186.275-1977.885a8.222,8.222,0,0,0-3.8,2.691c-1.174,1.418-1.587,3.388-2.114,5.337,0,0-1.45-5.776,1.546-8.475C3185.083-1981.194,3186.275-1977.885,3186.275-1977.885Z" transform="translate(-2618.02 2194.27)" fill="#30262a"/>
        <path id="Path_1961" data-name="Path 1961" d="M3179.223-1996.325s-2.4,19.593-7.458,24.277c-3.511,3.25-15.937,8.494-18.908,13.326a15.681,15.681,0,0,0-1.127,4.638,81.756,81.756,0,0,0,3.373,34.9q.322.968.676,1.935a3.274,3.274,0,0,1-1.944,4.24,55.876,55.876,0,0,1-9.152,2.393c-.718.126-1.462.236-2.217.332-10.423,1.324-17.477-1.122-21.062-2.931a4.772,4.772,0,0,1-2.611-4.525c.215-3.868,2.15-7.692,3.022-16.988.661-7.053-4.153-17-3.9-20.754.1-1.484.835-8.073.089-9.093-4.958-6.807-13.3-13.329-14.576-19.547-1.478-7.167-.522-21.47-.522-21.47a8.182,8.182,0,0,1,2.313-.584,3.414,3.414,0,0,1,2.4,1.293s3.72,13.931,3.908,14.868c.989,5,10.494,12.239,13.372,13.692a22.608,22.608,0,0,0,7.655,2.633s-2.344,4.049,1.124,4.611c4.174.676,7.4-4.123,7.4-4.123a18.69,18.69,0,0,0,7.1.04c3.788-.556,17.27-5.115,19.217-8.574,1.42-2.516,8.906-16.468,8.906-16.468a1.952,1.952,0,0,1,1.813.178A2.044,2.044,0,0,1,3179.223-1996.325Z" transform="translate(-2566.76 2211.937)" fill="#467cdb"/>
        <path id="Path_1962" data-name="Path 1962" d="M3189.189-1934s-.467.942-1.1.959a7.436,7.436,0,0,1-2.333-.3,9.018,9.018,0,0,1-.374-1.148A10.609,10.609,0,0,1,3189.189-1934Z" transform="translate(-2621.583 2164.463)" fill="#fff"/>
        <path id="Path_1963" data-name="Path 1963" d="M3238.352-1817.067s-9.377-1.608-10-8.282c-.663-7.111,6.62-26.634,6.62-26.634l.006.015A81.756,81.756,0,0,0,3238.352-1817.067Z" transform="translate(-2650.008 2109.821)" fill="#4075d3"/>
        <g id="Group_553" data-name="Group 553" transform="translate(520.687 114.812)">
          <path id="Path_1964" data-name="Path 1964" d="M3102.521-2261.746l-.977-3.584a9.771,9.771,0,0,0-8.28-7.132l-25.483-3.01-1.91,16.17-8.154,69.034,105.417,12.451,8.154-69.034-59.654-7.046A10.752,10.752,0,0,1,3102.521-2261.746Z" transform="translate(-3057.716 2275.472)" fill="#e6e8f0"/>
          <g id="Group_552" data-name="Group 552" transform="translate(19.845 35.958)">
            <path id="Path_1965" data-name="Path 1965" d="M3116.475-2142.054l.726-6.142,22.656-6.891-.741,6.276-15.774,4.41,14.313,7.963-.752,6.365Z" transform="translate(-3116.475 2159.787)" fill="#272e69"/>
            <path id="Path_1966" data-name="Path 1966" d="M3206.351-2169l5.741.678-24.585,38.885-5.741-.678Z" transform="translate(-3159.715 2169.003)" fill="#272e69"/>
            <path id="Path_1967" data-name="Path 1967" d="M3290.741-2132.43l-.726,6.142-22.656,6.891.742-6.275,15.774-4.41-14.313-7.964.752-6.365Z" transform="translate(-3216.4 2152.716)" fill="#272e69"/>
          </g>
        </g>
        <path id="Path_1968" data-name="Path 1968" d="M3317.439-1995.269a20,20,0,0,0-.581-3.222c-.27-.507.4-.653.979.507s1.722.81,2.3,1.958.067,1.452-.642,1.384A10.159,10.159,0,0,1,3317.439-1995.269Z" transform="translate(-2708.61 2207.099)" fill="#ffbc96"/>
        <path id="Path_1969" data-name="Path 1969" d="M3112.371-2017.391s1.546-1.671,1.539-2.419,1.081-2.6.776-2.938-.843.2-1.13.709-1.469.475-1.739,1.859A4.569,4.569,0,0,0,3112.371-2017.391Z" transform="translate(-2572.823 2222.983)" fill="#ffbc96"/>
        <g id="Group_557" data-name="Group 557" transform="translate(294.808 155.528)">
          <g id="Group_556" data-name="Group 556">
            <g id="Group_555" data-name="Group 555">
              <path id="Path_1970" data-name="Path 1970" d="M2388.909-2092.245l40.03,17.533v-15.6l-20.856-8.577,20.856-8.577v-15.455l-40.03,17.534Z" transform="translate(-2388.909 2133.726)" fill="#272e69"/>
              <path id="Path_1971" data-name="Path 1971" d="M2548.574-2154.913l-34.589,72.3H2528.6l34.589-72.3Z" transform="translate(-2471.743 2154.913)" fill="#272e69"/>
            </g>
            <path id="Path_1972" data-name="Path 1972" d="M2667.616-2122.921v15.6l20.856,8.577-20.856,8.577v15.455l40.03-17.533v-13.143Z" transform="translate(-2573.487 2133.726)" fill="#272e69"/>
          </g>
        </g>
        <rect id="Rectangle_437" data-name="Rectangle 437" width="14.619" height="4.129" transform="translate(337.05 223.701)" fill="#272e69"/>
        <rect id="Rectangle_438" data-name="Rectangle 438" width="6.83" height="4.128" transform="translate(379.428 151.4)" fill="#30262a"/>
        <g id="Group_559" data-name="Group 559" transform="translate(294.808 151.4)">
          <path id="Path_1973" data-name="Path 1973" d="M2388.909-2104.469l40.03,17.533v-15.6l-20.856-8.577,20.856-8.577v-15.455l-40.03,17.533Z" transform="translate(-2388.909 2145.95)" fill="#3c4481"/>
          <path id="Path_1974" data-name="Path 1974" d="M2548.574-2167.137l-34.589,72.3H2528.6l34.589-72.3Z" transform="translate(-2471.743 2167.137)" fill="#3c4481"/>
        </g>
        <path id="Path_1975" data-name="Path 1975" d="M2667.616-2135.146v15.6l20.856,8.577-20.856,8.577v15.455l40.03-17.533v-13.143Z" transform="translate(-2278.679 2297.35)" fill="#3c4481"/>
        <path id="Path_1976" data-name="Path 1976" d="M2390.621-2050.021h-2.438l-19.954-76.135-25.649-97.873H2056.133l43.391,174.008-3.1.032-43.914-176.4,292.084-.253.256.973,25.64,98.4Z" transform="translate(-1871.317 2357.947)" fill="#7f95f4"/>
        <path id="Path_1977" data-name="Path 1977" d="M3010.156-1853.463l-2.353.315-20.481-78.149,2.263-1.116Z" transform="translate(-2490.41 2163.087)" fill="#7f95f4"/>
        <path id="Path_1978" data-name="Path 1978" d="M2183.472-2130.906a1.9,1.9,0,0,0-.338,2.03.013.013,0,0,0,.005.01c.49,1.353,2.107,2.864,3.986,4.372.24.194.454.37.639.533.049.043.1.085.144.129s.074.068.111.1c1.752,1.615,1.093,1.985,4.24,5.262,3.589,3.734,6.06,3.8,6.762,3.461.595-.29-.614-2.27-1.952-4.5-.065-.107-.129-.216-.2-.324-.178-.3-.355-.6-.532-.894-1.569-2.679-1.166-3.936-.794-7.923.3-3.24,5.04-18.1,5.04-18.1l-6.877-1.185s-2.071,11.833-4.353,13.655c-1.22.971-2.586.984-3.759,1.7-.083.05-.164.1-.244.154A9.034,9.034,0,0,0,2183.472-2130.906Z" transform="translate(-1957.723 2305.817)" fill="#ffbc96"/>
        <path id="Path_1979" data-name="Path 1979" d="M2183.472-2100.791a1.9,1.9,0,0,0-.338,2.03.014.014,0,0,0,.005.01c.6,1.352,2.176,2.855,3.992,4.358.238.2.447.378.633.547.049.043.1.085.144.129s.074.068.111.1c1.752,1.615,1.093,1.985,4.24,5.262,3.589,3.734,6.06,3.8,6.762,3.461.595-.29-.614-2.27-1.952-4.5a15.293,15.293,0,0,1-6.4-4.714c-2.161-2.757-3.6-6.3-5.073-8.353-.083.05-.164.1-.244.154A9.017,9.017,0,0,0,2183.472-2100.791Z" transform="translate(-1957.723 2275.701)" fill="#002c54"/>
        <path id="Path_1980" data-name="Path 1980" d="M2337.84-2139.306c.425,2.123,3.451,1.769,6.831.943s2.577.156,7.389-.377,6.269-2.327,6.416-3.042c.131-.635-2.246-.859-4.8-1.153-.32-.036-.643-.075-.965-.115-2.879-.361-4.988-2.219-7.6-3.745-2.477-1.446-6.174-7.333-6.174-7.333l-6.6.522s3.463,5.26,4.8,7.546a7.977,7.977,0,0,1,.648,4.5A8.456,8.456,0,0,0,2337.84-2139.306Z" transform="translate(-2056.636 2309.921)" fill="#ffbc96"/>
        <path id="Path_1981" data-name="Path 1981" d="M2355.26-2116.414c3.381-.826,2.577.156,7.389-.377s6.269-2.327,6.416-3.042c.131-.635-2.246-.859-4.8-1.153l-.024.049a13.56,13.56,0,0,1-6.891,2.142c-3.264.08-6.722-.856-8.976-.82a8.457,8.457,0,0,0,.05,2.257C2348.853-2115.234,2351.879-2115.587,2355.26-2116.414Z" transform="translate(-2067.224 2287.972)" fill="#002c54"/>
        <path id="Path_1982" data-name="Path 1982" d="M2229.363-2255.911l-6.169,16.6-8.053,21.673a13.053,13.053,0,0,1-4.278-.391,18.551,18.551,0,0,1-4.138-2.014s2.236-23.271,6.407-36.629c1.069-3.429,2.268-6.2,3.589-7.763C2223.188-2272.079,2229.363-2255.911,2229.363-2255.911Z" transform="translate(-1973.446 2384.334)" fill="#3c4d9a"/>
        <path id="Path_1983" data-name="Path 1983" d="M2138.186-2319.72c-4.041-1.3-15.567.37-27.145,2.636l-2.425-4-25.008-1.953s-8.252,18.3-3.735,29.961a4.229,4.229,0,0,0,4.233,2.849h.365s14.885-.009,19.718-.009c12.437,0,26.321-8.549,28.117-8.908,2.94-.588,4.115,5.292,7.055,11.465s27.634,27.34,27.634,27.34a21.728,21.728,0,0,0,5.363-.551,5.281,5.281,0,0,0,2.3-1.454S2147.3-2316.781,2138.186-2319.72Z" transform="translate(-1888.542 2421.783)" fill="#4859a8"/>
        <path id="Path_1984" data-name="Path 1984" d="M2080.518-2543.458c-3.5-.9-8.3,0-9.1.075-9.516.937-12.713,11.552-11.273,19.787,1.329,7.6-2.526,9.7-6.993,15.706-8.958,12.037-3.1,22.186,3.965,24.8,4.241,1.57,10.129-2.39,10.129-2.39.106.042,18.5-12.052,26.043-18.87C2105.851-2509.26,2089.448-2541.16,2080.518-2543.458Z" transform="translate(-1868.729 2568.025)" fill="#30262a"/>
        <path id="Path_1985" data-name="Path 1985" d="M2122.1-2462.509c.25.881-3.912,2.5-7.09,1.9-2.989-.557-6.34-4.057-5.648-4.385,1.144-.544,1.913-1.9,1.288-9.2l.569.064,9.564,1.092s.029,2.979.251,5.77A18.868,18.868,0,0,0,2122.1-2462.509Z" transform="translate(-1908.904 2521.89)" fill="#ffbc96"/>
        <path id="Path_1986" data-name="Path 1986" d="M2124.6-2472.912s.029,2.979.251,5.77c-5.279.284-8.456-4.292-9.815-6.862Z" transform="translate(-1912.725 2521.764)" fill="#f2aa81"/>
        <path id="Path_1987" data-name="Path 1987" d="M2122.132-2504.01s-12.443,1.227-13.088-6.533-2.685-12.829,5.232-13.94,9.709,1.721,10.554,4.259S2125.352-2504.529,2122.132-2504.01Z" transform="translate(-1908.28 2555.36)" fill="#ffbc96"/>
        <path id="Path_1988" data-name="Path 1988" d="M2113.56-2530.033s-1.567,9.481-8.654,11.73c-5.17,1.641-7.511.56-7.511.56a21.075,21.075,0,0,0,3.373-7.888,3.793,3.793,0,0,1,2.531-2.9C2106.972-2529.735,2111.424-2533.04,2113.56-2530.033Z" transform="translate(-1901.04 2559.685)" fill="#30262a"/>
        <path id="Path_1989" data-name="Path 1989" d="M2138.314-2525.9a8.233,8.233,0,0,1,4.423,3.548c1.136,1.654,2.451,5.822,2.227,7.668,0,0,2.178-8.775-1-12.039C2140.6-2530.182,2138.314-2525.9,2138.314-2525.9Z" transform="translate(-1928.14 2557.572)" fill="#30262a"/>
        <path id="Path_1990" data-name="Path 1990" d="M2078.674-2420.317c.222.942.412,1.81.566,2.609.253,1.291.427,2.4.551,3.385.38,3.061.265,4.874.522,6.858a17.1,17.1,0,0,0,.931,3.734c.515,1.421,14.036,2.688,21.729,2.178,2.443-.158,4.3-.5,4.965-1.073,2.744-2.383,2.471,2.858,2.847-22.224.182-12.235-10.381-23.131-10.381-23.131s-.843,5.226-11.32-.994c-.372-.218-4.5,5.892-8.469,13.415C2076.239-2427.25,2077.439-2425.492,2078.674-2420.317Z" transform="translate(-1887.886 2505.192)" fill="#272e69"/>
        <path id="Path_1991" data-name="Path 1991" d="M2223.194-2220.065l-8.053,21.673a13.053,13.053,0,0,1-4.278-.391,18.551,18.551,0,0,1-4.138-2.014s2.236-23.271,6.407-36.629Z" transform="translate(-1973.446 2365.087)" fill="#3c4d9a"/>
        <path id="Path_1992" data-name="Path 1992" d="M2145.256-2446.027s10.78,1.828,12.045,6.469,10.011,30.6,10.011,30.6-6.776,2.312-9.308-.219-8.809-23.487-8.809-23.487Z" transform="translate(-1932.738 2503.237)" fill="#272e69"/>
        <path id="Path_1993" data-name="Path 1993" d="M2275.369-2356.273l2.554-1.013a6.1,6.1,0,0,1,2.365-.08c.83.261,2.906.234,2.915.574s-2.366,1.4-2.366,1.4l-.075-.029c.9,2.045,5.417,3.212,5.635,3.962.264.909-1.836,1.379-2.98,1.663s-3.947.255-5.329-1.2c-1.01-1.065-2.719-2.53-2.719-2.53Z" transform="translate(-2018.907 2444.584)" fill="#e89880"/>
        <path id="Path_1994" data-name="Path 1994" d="M2140.7-2477.426a2.14,2.14,0,0,0,1.9,1.276c1.378,0,1.75-.206,2.011-.5a4.328,4.328,0,0,0,.52-.854A11.705,11.705,0,0,0,2140.7-2477.426Z" transform="translate(-1929.721 2524.2)" fill="#fff"/>
        <path id="Path_1995" data-name="Path 1995" d="M2181.659-2370.271l26.1,1.993a8.134,8.134,0,0,1-1.137,5.4s-23.543,4.6-29.688,2.252-5.451-13.437-5.451-13.437Z" transform="translate(-1950.089 2455.577)" fill="#a54c3b"/>
        <path id="Path_1996" data-name="Path 1996" d="M2084.222-2347.735c.38,3.061.265,4.874.523,6.858,9.788.032,22.873-7.559,22.873-7.559Z" transform="translate(-1892.316 2438.605)" fill="#03284a"/>
        <path id="Path_1997" data-name="Path 1997" d="M2106.818-2392.016s-15.247-.455-17.818-9.121c-2.824-9.521-5.986,3.916-5.986,3.916l1.683,8.576h16.728Z" transform="translate(-1891.516 2475.766)" fill="#03284a"/>
        <g id="Group_563" data-name="Group 563" transform="translate(220.493 54.572)">
          <path id="Path_1998" data-name="Path 1998" d="M2190.255-2448.174l-.824-2.041a5.787,5.787,0,0,0-5.366-3.62h-15.2v50.822h62.878v-41.177h-35.582A6.369,6.369,0,0,1,2190.255-2448.174Z" transform="translate(-2168.865 2453.835)" fill="#e6e8f0"/>
          <g id="Group_562" data-name="Group 562" transform="translate(9.484 17.233)">
            <path id="Path_1999" data-name="Path 1999" d="M2196.947-2380.548v-3.664l12.849-5.628v3.743l-8.973,3.69,8.973,3.69v3.8Z" transform="translate(-2196.947 2394.221)" fill="#272e69"/>
            <path id="Path_2000" data-name="Path 2000" d="M2251.468-2402.81h3.424l-11.76,24.583h-3.425Z" transform="translate(-2225.265 2402.81)" fill="#272e69"/>
            <path id="Path_2001" data-name="Path 2001" d="M2301.762-2384.212v3.664l-12.849,5.628v-3.743l8.973-3.69-8.973-3.69v-3.8Z" transform="translate(-2257.853 2394.221)" fill="#272e69"/>
          </g>
        </g>
        <path id="Path_2002" data-name="Path 2002" d="M2153.49-2371.848l1.1-1.732a8.861,8.861,0,0,0,2.1-1.144c1.457-1.022,1.264-2.554,1.992-2.392l.009,3.367-.079.011c3.125.835,6.779-.072,6.852.705.2,2.141-1.454,3.1-2.841,3.774a5.029,5.029,0,0,1-4.185.686c-1.4-.436-3.608-.88-3.608-.88Z" transform="translate(-1938.19 2457.607)" fill="#ffbc96"/>
        <path id="Path_2003" data-name="Path 2003" d="M2078.532-2448.959s-9.9.648-12.372,4.508-5.543,23.459-4.256,30.19,32.983-1.287,32.983-1.287l-1.011-5.84s-18.293.105-19.335-2.277C2073.155-2426.832,2078.532-2448.959,2078.532-2448.959Z" transform="translate(-1877.335 2505.178)" fill="#272e69"/>
        <path id="Path_2004" data-name="Path 2004" d="M2253.195-2429.057c-.085.257,1.489,2.85,3.736,2.4,1.4-.281,3.223-3.3,1.622-3.963A4.553,4.553,0,0,0,2253.195-2429.057Z" transform="translate(-2004.219 2493.252)" fill="#ffbc96"/>
      </g>
      <g id="Group_572" data-name="Group 572" transform="translate(514.436 -76.762)">
        <line id="Line_34" data-name="Line 34" x1="0.578" y2="187.5" transform="translate(27.309)" fill="none" stroke="#cbddf7" stroke-miterlimit="10" stroke-width="2"/>
        <path id="Path_2006" data-name="Path 2006" d="M2517.726-3258.285a27.635,27.635,0,0,0-27.634-27.635,27.635,27.635,0,0,0-27.635,27.635Z" transform="translate(-2462.457 3473.129)" fill="#9fbdf9"/>
      </g>
      <path id="Path_2008" data-name="Path 2008" d="M294.044-46H-27.64L116.029-277.3H155.44Z" transform="translate(405.843 415.38)" opacity="0.244" fill="url(#linear-gradient)"/>
    </g>
  </g>
</svg>
